<?xml version="1.0" standalone="no"?>
<!DOCTYPE svg PUBLIC "-//W3C//DTD SVG 20010904//EN"
 "http://www.w3.org/TR/2001/REC-SVG-20010904/DTD/svg10.dtd">
<svg version="1.0" xmlns="http://www.w3.org/2000/svg"
 width="4000.000000pt" height="3000.000000pt" viewBox="0 0 4000.000000 3000.000000"
 preserveAspectRatio="xMidYMid meet">

<g transform="translate(0.000000,3000.000000) scale(0.100000,-0.100000)"
fill="#000000" stroke="none">
<path d="M19705 28695 c56 -26 78 -50 73 -79 -4 -22 -2 -26 19 -26 14 0 26 -7
29 -17 3 -10 10 -26 15 -36 12 -23 -11 -33 -41 -17 -28 15 -60 47 -60 61 0 21
-86 -19 -103 -48 -12 -19 -66 -7 -150 33 -52 25 -77 31 -103 27 -19 -3 -40 -1
-47 6 -13 10 -97 14 -233 12 -39 -1 -55 4 -69 19 -22 24 -67 28 -59 5 5 -11
-1 -15 -24 -15 l-30 0 16 -44 c19 -51 11 -68 -18 -41 -18 17 -39 19 -176 19
-114 1 -153 -2 -150 -11 3 -6 -2 -17 -10 -23 -8 -7 -14 -21 -14 -32 0 -17 -5
-19 -52 -14 -166 17 -198 17 -230 2 -18 -9 -59 -17 -91 -19 -57 -3 -76 -15
-77 -44 0 -13 -109 -28 -190 -25 -47 1 -61 -3 -97 -28 -26 -19 -54 -30 -76
-30 -36 0 -110 -31 -90 -37 7 -3 21 0 32 6 21 12 74 15 83 5 4 -3 -10 -28 -30
-55 -31 -41 -42 -49 -70 -49 -20 0 -31 5 -30 12 2 7 -7 14 -19 16 -16 2 -22
-3 -25 -19 -4 -32 -20 -33 -52 -4 -15 14 -39 25 -53 25 -23 0 -25 -3 -20 -29
8 -39 -18 -61 -71 -61 -50 0 -112 -34 -112 -61 0 -23 -8 -24 -32 -2 -17 15
-21 15 -55 -3 -20 -10 -55 -29 -79 -41 -23 -12 -45 -27 -49 -33 -11 -18 3 -24
21 -9 42 35 102 61 128 56 19 -3 19 -4 -6 -15 -29 -12 -53 -46 -43 -62 11 -18
57 -10 87 15 16 14 42 28 56 31 15 3 44 12 65 20 48 18 77 18 77 0 0 -13 -86
-54 -102 -48 -4 1 -26 -8 -48 -19 -22 -12 -47 -19 -55 -15 -8 3 -15 1 -15 -4
0 -15 -56 -40 -91 -40 -22 0 -43 -10 -70 -35 -22 -19 -45 -35 -53 -35 -8 0
-27 -15 -43 -34 -15 -19 -62 -61 -105 -95 -42 -33 -79 -65 -82 -70 -11 -17 16
-52 30 -40 8 7 14 6 19 -1 8 -13 -2 -30 -18 -30 -7 0 -22 -18 -35 -40 -12 -22
-31 -44 -42 -50 -26 -14 -26 2 -1 38 21 29 37 102 23 102 -4 0 -23 -15 -41
-34 -26 -27 -29 -34 -17 -39 9 -4 16 -12 16 -19 0 -13 -94 -88 -111 -88 -12 0
-12 23 2 37 6 6 7 13 2 15 -4 3 -23 -13 -42 -34 -33 -38 -34 -39 -10 -36 13 2
25 -1 26 -7 2 -5 -10 -10 -26 -10 -20 0 -40 -11 -65 -37 -19 -20 -46 -40 -58
-44 -13 -4 -43 -24 -67 -45 -24 -22 -48 -39 -52 -39 -5 0 -44 -36 -86 -80 -43
-45 -89 -83 -103 -87 -14 -3 -37 -17 -51 -30 -37 -34 -75 -29 -72 10 3 44 -23
16 -31 -32 -5 -31 -14 -44 -41 -61 -19 -12 -35 -27 -35 -33 0 -7 -3 -29 -6
-49 -5 -31 -3 -38 9 -38 20 0 32 -19 19 -32 -6 -6 -20 4 -41 29 l-31 37 -22
-21 -21 -22 25 -33 c30 -40 40 -66 29 -73 -5 -2 -14 2 -21 10 -7 8 -16 13 -20
10 -11 -7 17 -64 43 -89 18 -18 18 -20 3 -31 -10 -8 -16 -26 -16 -49 0 -24 -5
-36 -14 -36 -25 0 -41 -29 -28 -51 18 -28 15 -32 -19 -25 -26 5 -35 0 -65 -32
-19 -20 -62 -91 -96 -157 -33 -66 -74 -136 -89 -156 -31 -40 -38 -59 -14 -39
9 7 18 10 21 7 8 -7 -18 -77 -28 -77 -4 0 -8 -6 -8 -13 0 -7 -11 -29 -25 -49
-20 -30 -25 -49 -25 -100 0 -60 -5 -76 -42 -123 -44 -57 -78 -107 -78 -115 0
-5 -11 -30 -25 -56 -14 -26 -25 -55 -25 -65 0 -9 -11 -31 -25 -47 -14 -17 -25
-38 -25 -49 0 -30 -80 -133 -103 -133 -11 0 -67 -59 -67 -70 0 -4 -20 -28 -44
-54 -37 -40 -122 -161 -224 -317 -29 -46 -41 -139 -22 -174 11 -21 11 -29 0
-50 -13 -25 -14 -36 -11 -227 1 -79 5 -109 16 -118 10 -8 15 -31 15 -66 0 -30
5 -54 10 -54 6 0 8 -16 4 -41 -6 -34 -3 -42 15 -55 22 -16 28 -48 11 -59 -13
-8 -13 -52 -1 -60 5 -3 11 5 13 17 7 50 68 22 68 -32 0 -16 7 -30 15 -34 9 -3
15 -18 15 -36 0 -20 -5 -30 -15 -30 -10 0 -15 10 -15 31 0 24 -3 30 -16 25 -9
-3 -18 -6 -20 -6 -11 0 -2 -64 12 -92 13 -24 14 -36 5 -56 -16 -34 -4 -42 19
-12 11 14 15 30 11 38 -11 19 -1 62 13 62 6 0 20 -16 30 -35 17 -30 17 -39 6
-79 -7 -27 -9 -59 -5 -78 4 -18 7 -67 6 -109 -1 -58 2 -79 14 -89 20 -17 26
-10 32 42 3 24 15 51 25 62 17 16 19 27 13 72 -4 37 -3 54 5 54 17 0 41 -67
35 -98 -15 -69 -29 -118 -37 -129 -6 -8 -2 -15 11 -23 17 -9 21 -20 21 -60 0
-27 -5 -52 -11 -55 -6 -4 -7 -19 -4 -36 5 -22 3 -29 -9 -29 -10 0 -18 -13 -22
-37 -4 -21 -15 -49 -24 -63 -18 -26 -32 -113 -31 -187 1 -31 -3 -43 -13 -43
-8 0 -18 -9 -21 -21 -6 -19 -8 -19 -24 -5 -10 9 -21 16 -24 16 -15 0 -6 -63
12 -88 47 -68 96 -208 81 -232 -14 -23 0 -40 27 -34 18 5 32 0 54 -22 44 -42
39 -58 -18 -52 -27 3 -54 4 -60 1 -15 -6 -17 -49 -3 -58 6 -3 10 3 10 14 0 14
6 21 19 21 27 0 36 -31 11 -37 -12 -3 -19 -11 -17 -17 4 -13 154 -96 174 -96
16 0 36 -37 24 -44 -15 -9 -10 -128 6 -160 10 -19 13 -42 9 -70 -15 -98 -13
-117 20 -183 17 -36 35 -83 38 -105 10 -63 62 -188 106 -253 22 -33 40 -64 40
-69 0 -24 45 -96 57 -92 9 4 13 -4 13 -24 0 -16 4 -40 9 -53 6 -14 15 -81 21
-149 26 -293 44 -375 163 -743 51 -160 61 -200 60 -255 -6 -273 -12 -385 -22
-450 -7 -45 -10 -148 -8 -257 l4 -182 34 -53 c65 -102 202 -251 258 -282 48
-25 61 -28 120 -24 82 6 140 34 203 100 26 27 53 48 60 46 6 -2 18 -30 25 -61
7 -31 22 -76 34 -100 12 -23 23 -55 25 -72 5 -41 31 -157 44 -190 5 -14 10
-42 10 -61 0 -19 4 -42 9 -52 19 -38 31 -91 31 -140 0 -34 7 -63 20 -84 11
-18 20 -48 20 -65 0 -56 21 -184 50 -308 6 -22 17 -71 25 -110 9 -38 20 -86
25 -105 5 -19 15 -64 23 -100 9 -36 25 -87 36 -113 12 -27 21 -59 21 -71 0
-12 4 -26 10 -32 5 -5 21 -41 35 -79 15 -39 35 -84 46 -101 10 -17 19 -41 19
-52 0 -11 4 -23 9 -27 5 -3 32 -53 60 -111 28 -58 64 -125 81 -150 16 -25 30
-56 30 -69 0 -13 5 -36 11 -52 16 -42 28 -160 64 -643 8 -107 22 -240 30 -295
33 -225 75 -927 59 -998 -3 -17 -17 -33 -37 -44 -60 -30 -182 -106 -221 -136
-21 -17 -71 -68 -111 -114 -58 -65 -88 -113 -144 -227 -39 -80 -86 -164 -105
-188 -18 -24 -49 -69 -68 -99 -73 -112 -388 -403 -516 -477 -31 -17 -88 -41
-127 -52 -122 -35 -298 -91 -345 -110 -25 -9 -76 -27 -115 -40 -38 -12 -108
-37 -155 -55 -47 -18 -159 -63 -250 -99 -91 -35 -201 -80 -245 -98 -44 -19
-127 -49 -185 -67 -439 -138 -714 -235 -1005 -356 -239 -98 -534 -189 -975
-300 -132 -33 -451 -129 -640 -192 -41 -14 -154 -56 -250 -95 -96 -39 -224
-87 -285 -108 -60 -21 -142 -50 -182 -64 -93 -32 -166 -70 -228 -115 -81 -61
-127 -87 -185 -106 -196 -64 -450 -272 -706 -580 -181 -217 -268 -351 -394
-605 -72 -144 -184 -449 -224 -605 -38 -148 -58 -240 -81 -370 -23 -131 -28
-145 -77 -225 -28 -47 -64 -103 -80 -125 -69 -95 -214 -365 -274 -510 -49
-119 -146 -400 -190 -550 -66 -231 -264 -796 -329 -942 -8 -18 -32 -81 -54
-140 -48 -130 -72 -197 -189 -508 -81 -214 -177 -502 -216 -640 -26 -95 -84
-291 -155 -520 -71 -229 -123 -399 -181 -590 -16 -56 -30 -110 -30 -120 0 -11
-12 -60 -25 -110 -14 -49 -30 -115 -35 -145 -5 -30 -16 -91 -25 -135 -8 -44
-22 -118 -30 -165 -15 -90 -41 -170 -100 -314 -43 -107 -65 -184 -104 -372
-22 -106 -40 -161 -69 -221 -52 -103 -59 -131 -72 -303 -15 -202 -38 -294
-160 -635 -100 -281 -124 -366 -156 -545 -26 -142 -11 -481 25 -605 5 -16 16
-66 25 -110 32 -156 86 -356 124 -460 16 -44 34 -98 40 -120 5 -22 34 -98 64
-170 l54 -130 6373 -3 6373 -2 -6 192 c-4 106 -9 249 -12 318 -2 69 -7 206 -9
305 -2 99 -7 227 -10 285 -4 58 -8 267 -10 465 -2 198 -8 374 -13 390 -5 17
-7 67 -4 112 3 58 1 83 -7 83 -10 0 -16 -29 -12 -54 1 -5 -2 -21 -7 -36 -10
-26 -6 -55 17 -145 8 -30 7 -45 -3 -60 -10 -14 -12 -45 -9 -105 7 -118 2 -198
-13 -222 -5 -7 -1 -9 9 -5 10 3 17 2 17 -3 0 -5 -8 -11 -17 -13 -15 -4 -15 -6
5 -12 26 -9 27 -14 8 -29 -14 -10 -21 -69 -17 -141 1 -23 3 -27 11 -15 8 12
10 10 10 -9 0 -13 -7 -29 -16 -35 -25 -19 -16 -112 12 -129 8 -4 14 -15 14
-24 0 -14 -2 -14 -19 1 -23 21 -34 8 -25 -29 4 -15 2 -25 -5 -25 -7 0 -8 -8
-1 -26 13 -34 13 -84 -1 -84 -6 0 -9 -9 -6 -20 3 -10 -1 -24 -9 -31 -18 -14
-8 -30 13 -22 13 5 15 2 11 -15 -4 -12 -2 -25 3 -28 5 -3 5 -12 0 -22 -4 -9
-8 -52 -8 -95 -1 -42 -5 -83 -11 -90 -6 -8 -7 -34 -1 -72 5 -33 9 -89 9 -125
1 -97 0 -303 -2 -318 -3 -26 -23 -4 -30 34 -14 72 -37 179 -53 244 -9 36 -19
79 -22 95 -9 55 -43 229 -67 345 -13 63 -31 153 -40 200 -27 138 -43 218 -71
345 -14 66 -30 140 -35 165 -38 193 -61 308 -75 385 -8 50 -20 104 -24 120 -5
17 -14 59 -21 95 -6 36 -23 112 -36 170 -35 149 -39 172 -84 395 -22 110 -63
301 -91 425 -61 269 -64 284 -122 565 -49 240 -105 496 -141 655 -25 109 -65
297 -125 600 -12 58 -28 137 -37 175 -24 111 -54 263 -70 350 -7 44 -16 86
-20 95 -3 8 -9 35 -14 60 -4 25 -20 101 -35 170 -14 69 -28 143 -31 165 -3 22
-9 56 -14 75 -4 19 -15 62 -24 95 -8 33 -20 87 -26 120 -6 33 -25 116 -42 185
-17 69 -34 148 -38 175 -11 71 -49 263 -60 306 -6 20 -10 47 -10 60 0 13 -10
60 -21 104 -11 44 -25 105 -30 135 -5 30 -20 111 -34 180 -15 69 -30 148 -35
175 -4 28 -12 61 -18 75 -6 14 -15 52 -22 85 -6 33 -16 78 -22 100 -5 22 -13
58 -18 80 -4 22 -16 72 -25 110 -34 141 -57 241 -64 285 -5 25 -15 72 -24 105
-17 63 -47 203 -78 365 -10 52 -25 127 -34 165 -15 72 -41 200 -75 385 -11 58
-27 137 -34 175 -8 39 -21 105 -29 149 -8 43 -20 83 -26 89 -6 6 -11 25 -11
42 0 17 -9 58 -20 91 -11 32 -29 100 -40 149 -11 50 -30 131 -42 180 -11 50
-21 120 -20 157 0 38 -4 71 -10 74 -12 8 20 44 40 44 12 0 10 -6 -8 -25 -24
-25 -20 -30 22 -26 12 2 18 -8 20 -36 3 -31 5 -35 12 -18 5 11 16 28 24 37 14
17 16 17 28 0 12 -16 13 -16 14 4 0 30 6 32 50 20 24 -6 40 -16 41 -26 0 -10
3 -8 9 6 5 14 16 20 32 19 29 -2 30 -27 1 -40 -13 -5 -23 -13 -23 -17 0 -16
37 -7 58 13 24 21 45 18 36 -6 -5 -11 2 -13 33 -8 52 8 59 17 34 44 -15 17
-18 25 -9 30 7 5 10 9 8 11 -3 2 -14 8 -25 14 -14 8 -19 20 -17 40 2 22 0 26
-8 14 -15 -22 -12 -57 5 -64 8 -3 12 -12 9 -21 -3 -8 -1 -15 5 -15 6 0 11 -4
11 -10 0 -5 -9 -10 -20 -10 -14 0 -21 9 -26 35 -3 19 -10 35 -15 35 -5 0 -9
16 -9 35 0 27 -4 35 -17 35 -26 0 -97 66 -88 81 6 9 1 10 -18 5 -14 -3 -29 -2
-32 4 -4 6 7 13 24 16 31 7 41 19 20 26 -6 2 -9 13 -6 23 5 19 5 18 12 -3 5
-14 13 -21 21 -18 8 3 14 -1 14 -8 0 -8 -6 -17 -12 -19 -10 -4 -10 -6 0 -6 6
-1 12 -10 12 -21 0 -21 24 -27 50 -10 12 7 12 13 1 33 -19 36 -11 62 19 61 14
-1 52 3 85 8 66 10 107 4 100 -15 -4 -8 6 -13 27 -14 18 -2 37 -9 43 -16 5 -8
16 -12 23 -9 13 4 -9 30 -139 161 -134 135 -344 321 -420 373 -66 44 -205 172
-218 200 -7 15 -21 30 -32 33 -21 7 -27 27 -6 23 25 -4 56 13 59 34 2 13 11
22 23 24 11 1 34 8 51 15 32 13 64 7 64 -11 0 -5 -9 -10 -20 -10 -24 0 -70
-21 -70 -32 0 -4 5 -8 10 -8 6 0 10 5 10 10 0 12 37 13 44 1 4 -5 25 0 49 11
48 24 107 25 119 3 10 -17 48 -21 48 -4 0 5 5 7 10 4 6 -4 10 -16 8 -28 -2
-17 3 -23 23 -25 15 -2 32 -14 43 -32 11 -19 25 -30 40 -30 14 0 28 -10 36
-25 13 -24 50 -35 50 -15 0 6 -4 10 -8 10 -4 0 -14 21 -21 47 -6 26 -20 56
-29 66 -14 16 -18 45 -20 158 l-4 139 26 10 c27 10 33 24 16 35 -5 3 -10 12
-10 19 0 11 54 77 122 147 15 16 15 19 -4 36 -21 18 -63 90 -63 108 0 5 24 10
53 11 28 2 52 -2 52 -7 0 -5 5 -9 10 -9 6 0 10 7 10 15 0 22 18 18 31 -6 7
-13 14 -18 20 -12 10 10 2 43 -11 43 -4 0 -19 11 -34 25 -19 18 -34 23 -50 19
-14 -3 -29 1 -39 10 -9 10 -33 16 -57 16 -23 0 -51 5 -62 11 -15 8 -26 8 -44
-1 -15 -8 -40 -10 -73 -6 -44 6 -52 4 -63 -14 -8 -12 -24 -20 -39 -20 -17 0
-37 -12 -58 -35 -17 -19 -35 -35 -40 -35 -11 0 -81 -108 -81 -125 0 -7 -9 -24
-20 -38 -11 -14 -20 -40 -20 -60 0 -21 -7 -41 -20 -52 -11 -10 -20 -30 -20
-45 0 -14 -7 -35 -15 -46 -8 -10 -15 -33 -15 -49 0 -17 -6 -39 -13 -50 -7 -11
-19 -40 -27 -65 -7 -25 -20 -52 -27 -61 -7 -8 -13 -23 -13 -33 0 -40 -38 -73
-54 -47 -13 20 -37 281 -36 390 0 136 -3 181 -11 181 -4 0 -9 11 -11 24 -4 20
0 26 16 28 19 3 21 8 18 68 -2 36 -10 77 -17 92 -21 43 -28 88 -15 88 6 0 9 4
6 9 -4 5 -8 32 -10 59 -3 28 -10 61 -17 74 -7 13 -14 25 -14 28 -1 3 -5 16 -9
29 -5 15 -4 26 4 31 9 6 8 20 -4 63 -9 30 -16 71 -16 90 0 19 -7 40 -15 47
-12 10 -13 15 -4 21 9 5 9 19 0 61 -12 50 -16 73 -27 144 -2 17 -14 42 -25 55
-16 18 -19 32 -14 64 3 22 11 51 18 63 10 20 8 26 -10 40 -17 14 -21 28 -21
73 1 61 -9 90 -22 68 -5 -7 -6 10 -4 37 3 27 2 64 -1 82 -5 30 -9 33 -30 28
-23 -6 -23 -5 -13 31 6 24 6 43 0 57 -26 54 -39 106 -41 155 -1 30 -6 86 -12
125 -6 39 -10 123 -10 186 0 114 1 117 61 300 64 191 120 310 147 310 13 0 14
-9 9 -52 -27 -195 -26 -265 5 -373 6 -22 12 -51 14 -65 1 -14 16 -50 32 -80
16 -30 50 -101 75 -157 25 -55 72 -145 105 -200 33 -54 68 -113 77 -131 9 -18
47 -66 84 -107 68 -75 76 -89 221 -385 39 -80 86 -169 106 -199 20 -30 64
-104 98 -165 34 -61 89 -145 123 -187 84 -105 220 -295 272 -382 23 -40 47
-79 52 -87 6 -8 18 -28 28 -44 9 -16 29 -44 45 -61 15 -18 27 -36 27 -41 0 -4
29 -38 65 -75 36 -37 65 -72 65 -78 0 -6 9 -11 21 -11 16 0 19 4 14 18 -5 9
-8 25 -9 35 0 20 -7 22 -23 6 -9 -9 -12 -4 -11 20 1 18 -4 37 -10 43 -17 17
-15 48 3 48 8 0 15 5 15 10 0 6 -11 10 -24 10 -23 0 -24 2 -16 32 6 18 6 36 1
42 -6 7 -4 19 5 30 23 32 18 56 -11 56 -14 0 -25 4 -25 9 0 5 -3 17 -6 25 -5
12 2 19 25 27 17 6 31 15 31 20 0 4 -7 6 -16 2 -16 -6 -34 12 -34 35 0 6 12
12 28 12 37 0 53 12 42 30 -8 13 -11 12 -22 -3 -11 -15 -18 -16 -41 -8 -24 9
-27 15 -21 38 3 16 12 37 19 48 10 17 10 23 -2 34 -12 11 -12 15 2 31 14 16
14 18 0 23 -8 4 -15 18 -15 32 0 26 15 34 23 13 3 -7 6 -3 6 8 1 14 -7 24 -19
27 -14 3 -18 10 -14 22 4 9 13 14 21 11 8 -3 22 -6 30 -6 10 0 14 -6 10 -20
-6 -25 1 -26 19 -2 13 16 15 15 33 -8 15 -19 23 -22 31 -14 8 8 9 14 1 18 -14
9 -14 56 -1 76 9 13 10 13 11 0 1 -8 1 -22 0 -32 -1 -9 3 -19 9 -23 16 -10 41
15 35 36 -3 9 0 21 6 25 9 5 10 -2 6 -27 -13 -70 -13 -74 8 -74 11 0 28 -9 37
-20 14 -17 20 -18 37 -8 27 17 41 16 41 -2 0 -22 17 -18 23 5 7 27 47 27 54 0
5 -19 7 -19 18 -4 17 23 66 6 83 -29 17 -36 36 -34 61 6 14 22 21 26 21 15 0
-22 13 -23 30 -3 7 8 15 15 19 15 9 0 8 -97 -2 -106 -18 -19 -6 -33 28 -32 22
1 35 6 35 15 0 15 30 53 42 53 5 0 8 -9 8 -21 0 -12 5 -19 13 -17 17 6 22 38
5 38 -7 0 -19 9 -25 19 -11 17 -9 21 8 26 12 4 18 12 15 21 -3 8 -2 14 3 14 5
0 11 -9 14 -21 3 -11 15 -23 27 -26 12 -3 19 -11 16 -18 -2 -6 0 -18 5 -26 7
-12 9 -12 10 1 1 8 1 19 0 23 -1 5 3 6 8 3 5 -4 13 -21 16 -39 4 -17 12 -37
17 -44 6 -8 3 -15 -10 -22 -11 -6 -22 -20 -25 -31 -6 -25 1 -26 19 -2 12 15
12 15 7 -5 -3 -14 -1 -23 6 -23 6 0 11 7 11 15 0 8 9 19 19 25 28 14 91 -13
91 -40 0 -11 5 -20 10 -20 6 0 9 12 8 28 -5 42 32 42 55 0 18 -31 20 -32 33
-14 11 16 16 17 30 6 15 -14 15 -23 -2 -94 -5 -21 -4 -27 5 -21 8 4 14 -1 18
-14 7 -26 18 -27 45 -1 25 23 38 25 38 7 0 -8 -10 -19 -22 -25 -22 -10 -22
-11 7 -11 52 -1 77 10 72 30 -3 11 -1 19 4 19 5 0 9 4 9 9 0 6 -17 7 -37 4
l-38 -6 19 22 c15 16 17 24 8 33 -8 8 -14 4 -23 -15 l-12 -27 -24 33 c-16 21
-22 40 -18 55 4 17 1 22 -15 22 -17 0 -18 3 -8 25 9 21 8 28 -7 45 -16 18 -16
20 -2 20 10 0 17 8 17 19 0 11 6 21 13 24 7 2 8 8 3 13 -5 5 -11 4 -13 -3 -6
-17 -34 -17 -30 0 1 7 -7 11 -20 9 -13 -2 -23 2 -23 7 0 6 8 11 17 11 9 0 25
7 34 16 18 16 18 18 -1 41 -20 25 -20 25 1 54 22 31 40 31 32 0 -3 -11 2 -21
12 -25 25 -9 37 2 25 24 -14 27 -13 30 15 30 23 0 24 2 13 25 -6 14 -14 25
-18 25 -4 0 -5 13 -2 30 3 18 0 30 -7 30 -19 0 -12 49 8 59 13 7 17 18 14 34
-3 16 2 31 15 43 28 27 36 59 17 74 -12 10 -18 10 -30 0 -16 -13 -35 -6 -35
14 0 8 7 19 15 26 12 10 15 10 15 -4 0 -9 2 -16 5 -16 10 0 86 51 106 71 20
20 20 20 -6 53 -38 50 -32 61 20 32 49 -27 71 -26 80 5 4 10 13 19 21 19 16 0
19 16 3 25 -7 5 -5 13 5 24 9 9 17 26 19 37 5 33 33 78 41 65 9 -13 56 -15 56
-2 0 5 -6 11 -12 14 -10 3 -10 7 1 20 21 26 34 20 28 -13 -4 -17 -2 -30 3 -30
6 0 10 6 10 13 0 8 3 8 9 -2 6 -9 16 -11 27 -7 13 5 15 9 6 15 -8 5 -9 20 -4
51 7 41 10 45 35 42 20 -3 29 2 37 20 7 13 33 33 65 47 30 14 52 29 48 34 -3
5 -10 4 -16 -2 -16 -16 -37 -13 -37 4 0 8 6 15 13 15 7 0 23 9 36 21 13 12 29
18 38 15 10 -4 21 1 30 14 16 22 62 27 80 9 13 -13 43 -5 43 11 0 5 -16 10
-35 10 -29 0 -37 5 -46 27 -15 39 -7 104 15 126 13 14 17 28 13 52 -6 39 8 49
66 46 26 -2 39 2 43 13 3 9 12 16 18 16 7 0 25 14 42 31 32 33 33 31 -31 64
-16 8 -21 23 -23 65 -3 52 -2 54 15 38 13 -12 23 -14 33 -8 23 14 27 12 32
-14 3 -17 0 -27 -11 -31 -13 -5 -14 -7 -1 -15 28 -18 40 -11 40 25 0 28 4 35
19 35 10 0 22 7 25 16 9 23 8 26 -6 21 -7 -2 -21 0 -30 5 -12 5 -18 5 -18 -2
0 -5 -10 -10 -22 -10 -19 0 -17 5 20 40 22 22 45 40 49 40 5 0 14 14 20 30 6
17 19 30 28 30 12 0 15 6 10 20 -5 15 0 22 18 29 14 6 28 15 32 21 5 8 10 8
20 0 8 -7 20 -8 27 -4 7 5 18 9 23 9 31 3 65 19 65 31 0 8 8 14 18 14 40 1 82
80 50 93 -7 3 -4 6 7 6 24 1 65 28 65 43 0 6 -10 8 -24 4 -30 -7 -41 7 -26 33
11 22 26 28 89 36 36 4 51 13 78 45 19 22 39 40 44 40 5 0 23 16 40 35 17 19
37 35 45 35 7 0 16 11 20 25 3 14 12 25 19 25 7 0 20 11 29 25 9 14 24 25 34
25 25 0 42 20 42 47 0 16 6 23 20 23 28 0 80 40 80 60 0 19 57 80 74 80 19 0
66 54 66 76 0 10 15 31 34 46 l33 27 18 -40 c26 -57 36 -48 14 13 -24 65 -24
61 6 54 24 -6 25 -4 25 35 0 39 1 41 26 35 24 -6 26 -5 20 19 -5 18 -2 27 9
31 8 4 15 12 15 20 0 8 6 14 13 14 22 0 58 45 51 63 -4 10 0 19 9 23 9 3 28
21 42 40 23 30 25 38 16 69 -12 46 3 55 28 15 20 -34 37 -26 27 14 -4 18 0 24
30 35 35 13 35 13 15 28 -15 10 -21 25 -21 52 0 47 8 56 31 35 22 -19 49 -12
49 13 0 14 2 15 9 5 6 -10 14 -4 30 23 31 53 21 139 -21 184 -16 17 -33 31
-39 31 -15 0 -10 -22 8 -35 14 -10 17 -28 16 -85 -1 -39 -4 -74 -6 -77 -13
-12 -27 11 -27 42 0 32 -3 35 -41 45 -23 6 -43 9 -46 6 -8 -8 7 -26 21 -26 17
0 30 -44 15 -49 -7 -2 -36 -28 -65 -58 -56 -56 -67 -89 -39 -113 9 -7 13 -15
11 -17 -6 -7 -66 55 -66 67 0 6 -8 10 -17 10 -9 0 -25 7 -35 17 -22 20 -23 7
-3 -41 8 -20 22 -36 29 -36 14 0 33 -56 23 -66 -10 -10 -33 9 -57 46 -23 39
-40 51 -40 30 0 -5 3 -10 8 -10 8 0 33 -73 26 -79 -2 -2 -14 5 -27 17 -32 30
-54 15 -39 -26 6 -17 8 -33 5 -36 -7 -6 -73 26 -73 36 0 4 -4 8 -10 8 -15 0
-12 -26 5 -40 20 -16 19 -49 -1 -57 -9 -3 -29 7 -51 28 -24 22 -34 28 -29 16
3 -10 9 -36 12 -56 l6 -38 -32 5 c-33 5 -33 4 -27 -28 7 -30 6 -32 -18 -26
-20 5 -25 3 -25 -14 0 -11 -7 -20 -15 -20 -8 0 -15 4 -15 9 0 5 -12 8 -27 6
-16 -2 -31 -4 -35 -4 -5 -1 -8 -10 -8 -21 0 -23 -10 -26 -28 -8 -7 7 -20 13
-30 13 -11 0 -17 8 -17 25 0 15 -6 26 -17 28 -13 3 -18 -3 -18 -21 0 -20 -9
-28 -46 -42 -41 -16 -74 -14 -47 3 11 7 13 62 2 62 -4 0 -12 -7 -20 -16 -7 -9
-22 -14 -36 -11 -31 6 -47 -16 -40 -57 4 -28 2 -35 -14 -39 -11 -3 -34 2 -51
11 l-32 16 31 10 c44 15 48 22 29 51 -17 26 -36 33 -36 13 0 -14 -50 -68 -62
-68 -4 0 -8 7 -8 16 0 8 -4 13 -10 9 -5 -3 -6 -13 -3 -22 5 -13 2 -15 -15 -11
-12 4 -25 2 -28 -3 -10 -18 -26 -9 -21 12 6 22 -2 22 -60 3 -14 -5 -15 -4 -3
5 18 12 14 17 -26 24 -28 5 -31 4 -27 -14 4 -15 2 -18 -13 -13 -11 4 -24 13
-31 21 -13 16 -73 27 -73 13 0 -6 -9 -10 -20 -10 -17 0 -20 7 -20 39 0 48 -15
91 -32 91 -7 0 -32 -21 -55 -46 -43 -45 -73 -53 -73 -19 0 9 -9 34 -20 56 -14
29 -15 39 -5 36 7 -3 20 2 29 12 18 19 22 61 6 61 -5 0 -10 -4 -10 -10 0 -5
-11 -10 -25 -10 -17 0 -25 6 -25 18 0 9 -9 28 -20 42 -11 14 -20 30 -20 36 0
6 -7 26 -16 43 -14 27 -21 32 -42 28 -19 -4 -33 3 -54 23 -15 16 -28 35 -28
43 0 12 -9 14 -36 11 -20 -2 -44 -9 -55 -14 -14 -8 -23 -5 -43 15 -14 14 -32
25 -41 25 -8 0 -15 7 -15 15 0 11 9 14 33 13 28 -3 32 0 35 25 3 21 8 27 19
23 8 -3 19 -6 25 -6 6 0 8 -11 6 -25 -5 -22 -2 -25 23 -25 16 0 29 5 29 12 0
20 -51 78 -69 78 -26 0 -41 20 -41 58 0 19 -4 31 -10 27 -6 -3 -14 5 -20 20
-5 14 -21 36 -35 49 l-26 24 26 26 c14 14 25 32 25 41 0 11 7 14 23 10 12 -3
31 2 42 11 19 14 19 16 3 25 -25 14 -24 42 1 34 20 -6 102 33 136 65 22 21 96
50 125 50 10 0 20 5 22 12 3 8 43 11 135 11 105 -1 136 -5 157 -18 22 -15 40
-16 128 -9 57 5 110 9 118 9 26 1 60 16 60 27 0 5 7 8 15 4 8 -3 15 -1 15 4 0
13 27 13 32 0 2 -6 8 -6 18 1 13 8 13 11 -2 20 -13 7 -18 23 -18 54 0 44 0 44
-30 39 -27 -6 -30 -4 -30 21 0 24 3 26 29 20 27 -6 30 -4 29 17 -1 13 -1 39 0
58 3 43 17 25 26 -35 5 -31 12 -41 27 -42 20 -2 26 12 9 22 -5 3 -10 16 -10
28 0 12 -7 31 -15 41 -8 11 -15 27 -15 37 0 9 -7 22 -15 29 -9 7 -15 8 -15 2
0 -5 -8 -13 -17 -16 -21 -9 -43 18 -36 43 3 10 0 22 -5 25 -17 10 -42 -5 -48
-30 -7 -27 -29 -32 -38 -9 -4 10 -14 13 -34 9 -28 -6 -30 -4 -37 32 -3 21 -12
43 -20 49 -7 5 -15 22 -19 38 -5 21 -3 27 11 27 16 1 15 3 -4 19 -13 11 -23
24 -23 29 0 5 -7 12 -15 16 -8 3 -15 13 -15 22 0 8 -6 14 -12 11 -7 -2 -12
-11 -10 -21 5 -26 -15 -18 -22 9 -5 18 -13 25 -32 25 -37 0 -74 -28 -74 -56 0
-30 -22 -31 -84 -4 -48 20 -50 24 -61 118 -5 47 -4 53 12 50 10 -2 19 3 19 12
1 8 2 23 3 33 1 21 31 23 31 2 0 -26 15 -17 28 17 l12 31 42 -48 c24 -27 48
-60 55 -74 9 -21 12 -23 12 -7 1 11 -9 39 -20 63 -12 24 -18 47 -15 50 3 4 28
6 55 4 68 -3 83 26 17 31 -14 1 -26 6 -26 10 0 16 33 21 61 11 20 -8 29 -8 32
0 2 8 11 7 28 -4 36 -24 81 -30 94 -12 7 9 36 16 87 19 70 5 78 3 90 -15 17
-28 28 -26 28 3 0 32 12 39 47 25 35 -13 38 -13 38 8 0 10 9 19 20 21 11 3 24
10 28 18 5 9 27 14 62 14 43 0 55 3 55 16 0 13 11 14 73 10 39 -3 66 -3 60 0
-21 9 -15 31 14 52 l27 20 -32 16 c-18 9 -32 23 -32 31 0 8 -4 15 -10 15 -5 0
-17 14 -25 31 -16 30 -17 30 -88 28 -109 -3 -255 12 -268 27 -8 9 -34 14 -79
14 -37 0 -83 7 -103 15 -19 8 -37 12 -39 9 -3 -2 -18 0 -34 7 -16 6 -49 13
-74 16 -25 2 -52 11 -61 19 -8 8 -31 14 -51 14 -19 0 -38 3 -41 7 -4 3 -33 8
-64 10 -32 3 -71 11 -87 18 -31 16 -62 22 -148 29 -32 3 -68 12 -81 21 -17 11
-38 13 -78 9 -30 -2 -66 -6 -81 -7 -15 -1 -39 -14 -53 -29 -14 -16 -36 -28
-49 -28 -13 0 -26 -7 -30 -15 -6 -17 -66 -21 -94 -6 -28 16 -113 39 -167 46
-76 9 -81 12 -113 63 -34 52 -50 116 -33 126 6 4 11 15 11 24 0 10 9 25 20 35
13 11 20 29 20 51 0 39 12 51 60 60 l35 6 2 -62 c1 -41 7 -66 16 -73 8 -6 16
-19 18 -30 5 -25 85 -71 140 -78 46 -7 154 4 166 17 4 4 9 54 10 112 1 57 4
108 6 112 7 12 -12 135 -23 146 -6 6 -10 20 -10 33 0 15 -4 21 -14 17 -11 -4
-13 0 -9 15 3 11 -2 34 -10 51 -12 23 -14 43 -7 83 9 56 6 67 -15 67 -10 0
-13 18 -13 76 1 76 -9 99 -38 87 -7 -2 -15 5 -19 16 -5 17 5 32 49 72 60 55
66 66 39 76 -10 4 -24 15 -31 25 -7 10 -44 38 -81 63 -38 24 -80 59 -95 77
-14 18 -31 38 -36 45 -6 7 -10 22 -10 34 0 12 -8 23 -20 26 -13 3 -20 14 -20
28 0 18 -8 25 -44 34 -47 11 -65 35 -39 49 21 12 20 134 -2 165 -8 12 -15 33
-15 48 0 19 -6 28 -21 32 -17 5 -20 11 -15 29 3 13 6 31 6 40 0 11 5 15 15 12
17 -7 21 21 5 31 -5 3 -10 16 -10 29 0 12 -4 26 -9 32 -12 13 -22 102 -12 109
5 3 12 -1 14 -7 4 -9 6 -8 6 3 1 8 -4 20 -10 26 -7 7 -6 15 6 27 15 15 14 17
-9 28 -31 13 -34 28 -6 28 11 0 20 5 20 11 0 5 -10 9 -22 7 -21 -3 -23 0 -20
42 3 53 8 59 26 34 8 -10 17 -16 21 -13 12 13 10 198 -3 211 -6 6 -12 23 -12
37 0 15 -7 34 -15 44 -8 12 -11 31 -8 54 5 29 1 39 -21 60 -16 15 -25 31 -22
40 3 8 6 28 6 45 0 23 4 29 15 24 22 -8 20 49 -4 88 -23 37 -27 61 -16 100 5
17 4 36 -2 45 -12 20 -6 41 13 41 16 0 20 65 4 75 -5 3 -10 27 -10 52 0 40 2
45 20 40 30 -8 36 11 34 113 -1 56 4 119 13 155 10 41 11 61 4 63 -17 6 -13
29 5 36 13 5 14 9 4 21 -25 30 -3 77 55 120 30 22 65 48 77 58 11 9 33 17 49
17 15 0 30 6 33 13 7 17 78 -64 108 -122 12 -25 26 -48 30 -51 4 -3 16 -33 26
-66 28 -90 113 -204 151 -204 11 0 41 12 66 26 37 20 56 25 98 22 45 -4 52 -7
55 -28 2 -12 -6 -36 -18 -52 -11 -15 -29 -48 -40 -72 -10 -24 -28 -51 -40 -59
-22 -15 -22 -16 -4 -41 11 -14 26 -26 35 -26 9 0 22 -7 29 -15 7 -8 18 -15 25
-15 7 0 18 -14 24 -30 12 -34 35 -48 55 -31 13 11 19 2 40 -61 3 -10 12 -18
19 -18 7 0 19 -11 27 -24 7 -14 18 -22 26 -19 8 3 14 -1 14 -10 0 -8 28 -39
63 -69 66 -57 121 -88 172 -97 6 -1 19 -8 30 -15 31 -20 140 -39 190 -34 25 3
45 2 45 -2 0 -12 61 -41 71 -34 5 3 27 6 50 6 l40 0 -6 39 -7 38 64 0 c78 -1
219 14 235 24 6 4 57 21 113 37 56 16 113 36 126 45 14 9 29 13 34 10 5 -3 14
4 20 15 6 11 17 20 24 20 17 0 29 27 15 36 -5 3 -7 14 -4 24 4 13 -3 23 -25
36 -21 13 -28 24 -24 36 3 11 -1 20 -9 24 -14 5 -57 90 -57 111 0 4 10 14 21
22 21 13 22 12 16 -26 -4 -21 -3 -43 1 -48 8 -12 122 -14 122 -2 0 4 -10 7
-23 7 -12 0 -33 7 -45 16 l-23 16 25 24 c13 14 39 49 57 79 18 30 38 56 45 59
7 3 25 -5 40 -16 21 -17 30 -19 45 -10 27 17 32 15 26 -9 -4 -15 -1 -19 11
-17 11 2 16 12 15 28 -2 14 -4 46 -5 73 -2 54 -23 64 -33 17 -7 -32 -39 -58
-50 -40 -12 19 -98 11 -148 -14 -42 -22 -65 -25 -221 -31 -182 -8 -208 -3
-172 33 12 13 36 17 89 18 113 2 163 30 226 125 60 90 72 101 112 104 25 2 40
-7 85 -51 51 -51 72 -63 87 -47 4 4 -6 12 -23 19 -32 14 -39 31 -17 40 22 8
104 -33 141 -70 19 -19 37 -29 39 -23 2 6 20 12 40 12 29 2 37 -2 39 -18 4
-30 28 -34 28 -4 0 20 4 23 25 19 14 -2 25 -2 25 2 0 10 -44 51 -52 49 -4 -2
-12 6 -17 16 -8 14 -7 22 4 31 19 16 19 24 -1 65 -12 27 -33 42 -97 74 -45 22
-102 43 -127 47 -24 4 -58 15 -75 25 -16 9 -46 20 -65 24 -19 4 -39 11 -45 15
-13 10 -68 21 -125 25 -193 16 -200 18 -200 76 0 37 61 69 133 69 33 0 61 6
76 16 45 32 294 -5 376 -56 19 -12 75 -53 123 -91 93 -75 139 -101 187 -105
17 -2 49 -5 73 -8 41 -6 43 -5 49 25 3 17 12 33 19 36 7 2 10 11 8 18 -3 7 4
20 16 28 22 15 19 41 -6 51 -8 3 -11 12 -8 21 9 22 -14 64 -51 95 -16 14 -38
36 -50 49 -11 13 -35 38 -53 54 -17 17 -31 37 -30 46 2 10 -6 16 -27 17 -76 6
-175 29 -175 40 0 17 40 44 65 44 35 0 112 30 131 51 9 10 27 19 40 19 12 0
35 6 51 14 15 8 46 18 68 23 31 6 40 13 40 28 0 14 -6 19 -20 17 -11 -1 -60
-4 -109 -7 -81 -5 -88 -4 -70 10 10 8 25 15 32 15 6 0 12 7 12 15 0 11 -12 15
-51 15 -36 0 -49 4 -46 13 2 8 28 11 85 10 65 -1 82 1 82 12 0 20 -46 30 -75
17 -13 -6 -32 -8 -44 -5 -22 6 -57 65 -47 81 15 25 -155 57 -219 42 -24 -6
-66 -6 -106 0 -68 10 -277 11 -293 2 -5 -3 -1 -9 10 -13 17 -6 15 -8 -10 -14
-25 -7 -97 0 -214 21 -29 6 -32 4 -30 -17 3 -23 0 -24 -42 -21 -25 2 -49 8
-55 13 -15 14 -72 11 -89 -6 -8 -8 -36 -18 -61 -22 -26 -3 -49 -12 -52 -19 -3
-8 -20 -14 -38 -14 -19 0 -36 -4 -39 -9 -8 -13 -89 -22 -221 -25 -105 -2 -122
-1 -138 15 -12 13 -15 27 -11 44 3 14 2 25 -3 25 -5 0 -39 -18 -76 -40 -37
-23 -72 -38 -78 -35 -5 4 -15 2 -22 -3 -18 -14 -77 -32 -77 -23 0 4 5 12 12
19 17 17 -15 50 -34 35 -7 -6 -33 -21 -58 -35 -50 -27 -111 -28 -142 -1 -14
13 -17 13 -25 -1 -5 -10 -16 -13 -31 -9 -24 6 -28 23 -11 40 13 13 5 43 -11
43 -5 0 -10 -7 -10 -15 0 -8 -4 -15 -10 -15 -5 0 -10 9 -10 20 0 29 -18 25
-26 -5 -4 -18 -11 -24 -23 -20 -10 3 -20 -3 -26 -18 -9 -20 -38 -34 -107 -51
-22 -5 -27 -2 -37 24 -5 17 -16 30 -23 30 -7 0 -18 10 -23 23 -6 12 -21 24
-34 25 -13 2 -29 8 -35 13 -41 34 -53 47 -68 74 -24 43 -92 55 -147 27 -35
-19 -40 -19 -54 -4 -20 19 -35 9 -18 -12 21 -25 0 -139 -25 -134 -7 2 -12 -1
-11 -7 1 -5 8 -9 15 -9 14 2 7 -31 -10 -53 -17 -21 -27 -15 -39 27 -9 31 -9
43 1 55 8 10 9 15 1 15 -6 0 -11 -4 -11 -10 0 -6 -9 -5 -24 2 -21 9 -24 16
-19 39 3 18 1 29 -6 29 -6 0 -11 -6 -11 -13 0 -21 -35 -48 -53 -41 -19 7 -47
48 -47 69 0 18 21 20 38 3 8 -8 15 -8 27 2 19 16 19 36 0 44 -8 3 -15 13 -15
23 0 13 3 14 12 5 14 -14 48 -16 48 -3 0 6 -5 13 -11 17 -6 3 -8 15 -6 26 3
11 3 17 0 14 -9 -8 -43 13 -43 27 0 7 15 26 34 43 l34 32 -23 10 c-12 6 -26 7
-31 2 -5 -5 -20 -10 -34 -12 -21 -3 -25 -8 -22 -34 2 -20 -4 -36 -18 -49 -15
-14 -17 -21 -9 -32 14 -16 5 -28 -15 -20 -10 4 -13 13 -10 24 5 17 5 17 -6 1
-14 -22 -30 -23 -30 -2 0 9 -6 14 -12 11 -7 -2 -12 -13 -11 -25 3 -28 -25 -51
-38 -31 -5 8 -9 23 -9 34 0 12 -5 26 -12 33 -8 8 -8 15 2 27 16 19 30 19 30 0
0 -25 29 -17 36 9 8 33 1 43 -38 50 -28 5 -33 10 -34 36 -1 23 3 30 17 30 28
0 23 17 -6 24 -14 4 -25 11 -25 16 0 13 27 13 35 0 13 -21 25 -9 23 23 -2 23
1 32 12 32 11 0 15 -11 15 -40 0 -22 3 -45 8 -52 4 -6 3 -14 -2 -18 -14 -8 -2
-35 15 -35 18 0 60 41 68 68 11 34 23 27 30 -18 5 -29 10 -39 19 -33 6 4 26
13 44 19 25 9 33 9 37 -2 3 -8 17 -14 31 -14 18 0 25 5 25 19 0 11 7 27 16 36
13 12 14 19 5 28 -6 6 -11 22 -11 37 1 22 2 23 11 8 7 -13 22 -18 51 -18 37 0
40 2 34 24 -8 32 30 82 49 66 10 -8 20 -8 36 1 18 9 24 9 34 -4 7 -10 20 -14
34 -10 22 6 23 4 17 -28 -6 -34 -6 -34 10 -11 22 29 55 28 84 -3 31 -33 64
-34 56 -1 -7 30 3 40 20 18 13 -16 13 -16 14 1 0 28 30 20 30 -8 0 -18 5 -25
20 -25 11 0 23 -7 26 -15 4 -8 13 -15 22 -15 11 0 8 8 -13 30 -27 28 -29 54
-3 33 7 -6 36 -13 65 -17 l52 -7 9 33 c7 28 13 33 38 31 16 0 51 -7 78 -14 44
-12 50 -11 62 5 8 12 10 25 4 35 -6 11 -3 24 10 41 10 13 15 30 12 38 -3 10 0
13 9 10 9 -3 13 -17 12 -37 -1 -31 0 -31 33 -25 22 4 34 2 34 -5 0 -13 103 -4
133 11 13 7 24 5 36 -6 24 -22 34 -20 26 4 -9 29 23 26 34 -4 9 -22 14 -23
106 -25 54 -1 102 -4 106 -7 5 -3 9 2 9 10 0 9 -10 18 -23 21 -31 8 -53 63
-33 84 13 12 18 12 43 -4 46 -29 72 -63 65 -88 -5 -21 -4 -21 15 -4 11 9 23
17 27 17 13 0 91 -70 97 -88 3 -9 17 -17 30 -18 67 -2 79 -5 89 -25 9 -16 8
-28 -6 -57 -18 -39 -11 -63 22 -72 10 -3 30 -12 44 -21 45 -30 254 -42 316
-19 19 8 24 17 24 44 0 27 5 35 23 40 12 3 28 15 35 27 12 18 11 24 -5 41 -17
19 -17 21 12 45 46 37 73 44 144 38 36 -3 124 -7 196 -10 128 -4 131 -3 195
27 61 30 71 53 11 29 -21 -9 -33 -9 -54 2 -26 13 -26 15 -9 31 10 9 22 16 26
16 4 0 40 16 79 36 68 34 92 52 157 117 16 15 38 27 50 27 17 0 21 4 17 20 -3
12 5 33 23 55 16 20 31 55 35 78 4 23 20 63 36 90 33 53 35 63 15 70 -16 6
-36 -11 -36 -32 0 -12 -3 -12 -12 -3 -10 10 -8 19 6 44 19 31 19 32 -2 49 -28
22 -28 25 6 32 15 3 45 14 67 23 22 10 66 18 98 19 44 1 61 5 68 18 6 9 19 17
29 17 11 0 35 14 55 31 38 34 62 33 67 -3 2 -17 8 -22 23 -20 30 5 40 19 25
37 -11 13 -8 15 21 15 23 0 30 -3 20 -9 -8 -5 -11 -16 -6 -31 6 -18 12 -21 33
-15 15 4 49 9 75 12 41 4 51 2 67 -18 11 -12 20 -28 20 -36 0 -7 7 -16 15 -19
24 -10 19 -60 -7 -69 l-23 -8 23 -4 c32 -6 27 -29 -9 -37 -35 -7 -32 -21 7
-30 17 -5 30 -3 35 5 10 16 39 4 39 -17 0 -10 11 -32 25 -50 14 -18 25 -39 25
-47 0 -8 18 -37 40 -63 22 -27 40 -59 40 -72 0 -13 7 -31 16 -40 14 -14 16
-30 9 -112 -10 -128 -15 -619 -6 -700 4 -36 3 -81 -1 -100 -11 -51 8 -358 23
-376 6 -8 15 -12 18 -8 3 3 6 63 6 132 0 166 13 272 34 280 31 11 126 95 137
121 7 14 29 42 49 61 21 19 44 49 52 67 9 23 27 40 58 55 38 19 50 20 90 11
35 -8 55 -7 83 3 43 15 92 18 92 5 0 -5 -25 -17 -56 -26 l-57 -16 27 -28 c14
-14 28 -41 32 -58 3 -18 13 -34 20 -37 16 -6 62 9 84 28 8 7 28 16 44 20 57
14 146 92 146 128 0 6 14 26 30 43 35 36 92 167 84 190 -5 11 -12 7 -30 -18
-34 -46 -63 -90 -68 -102 -2 -5 -6 -7 -10 -4 -4 4 8 38 27 75 55 111 60 161
11 129 -23 -15 -24 -14 -24 7 0 13 7 32 15 42 20 26 19 33 -6 46 -18 10 -26 6
-62 -34 -22 -25 -45 -46 -51 -46 -6 0 -17 -9 -24 -20 -13 -22 -46 -28 -40 -7
3 6 16 18 31 25 22 11 25 17 20 46 -4 26 0 39 16 55 20 20 23 20 46 5 24 -16
25 -15 25 5 0 12 -8 25 -17 28 -10 4 -21 11 -25 17 -4 7 -18 3 -37 -12 -17
-12 -35 -22 -40 -22 -5 0 -13 -10 -17 -22 -4 -12 -17 -30 -30 -40 -12 -10 -24
-28 -26 -41 -2 -15 -18 -29 -50 -44 -27 -13 -48 -27 -48 -33 0 -13 27 -13 35
0 9 14 25 12 25 -3 0 -14 -40 -33 -90 -41 -19 -3 -44 -8 -55 -11 -15 -4 -23 0
-30 17 -9 21 -17 23 -107 26 -78 2 -98 6 -98 17 0 8 7 15 15 15 8 0 21 13 30
29 l15 30 -43 8 c-41 9 -42 10 -39 43 2 19 10 41 17 49 13 13 17 12 34 -3 12
-11 25 -15 32 -10 7 4 30 7 51 5 47 -2 63 6 48 24 -19 22 -1 38 35 32 24 -4
35 -1 39 9 4 9 21 14 51 14 24 0 64 4 87 10 24 5 55 12 71 15 36 7 34 23 -4
37 -37 13 -35 37 4 56 16 8 32 24 37 37 10 26 76 95 91 95 5 0 14 13 20 28 7
20 23 34 54 47 36 14 45 23 45 42 0 13 -6 26 -14 29 -8 3 -17 26 -21 51 -5 33
-12 47 -26 50 -14 4 -18 11 -14 22 4 9 9 40 12 70 5 47 4 54 -10 48 -26 -10
-29 9 -4 26 15 10 30 39 45 91 20 65 29 80 60 101 20 14 47 25 60 25 29 0 89
44 107 79 7 14 23 37 35 51 12 14 29 35 37 48 9 12 21 22 28 22 7 0 20 11 29
25 9 14 22 25 28 25 16 0 78 49 78 61 0 22 -31 41 -55 35 -20 -5 -25 -13 -25
-36 0 -25 -3 -29 -27 -27 -22 2 -29 -3 -31 -20 -3 -22 -39 -37 -64 -28 -8 3
-23 -3 -34 -13 -28 -26 -59 -42 -81 -42 -13 1 -11 5 10 16 27 14 34 29 20 37
-5 3 -48 1 -97 -3 -63 -6 -94 -5 -107 3 -22 14 -25 55 -5 63 16 6 14 66 -2 72
-6 2 -20 -6 -31 -17 -27 -27 -54 -27 -66 2 -6 12 -20 23 -32 25 -25 4 -38 32
-28 62 5 17 2 20 -22 21 l-28 1 28 8 c16 5 34 13 41 19 16 14 26 4 26 -26 0
-24 15 -32 22 -12 3 8 10 6 21 -5 24 -24 22 1 -3 39 -18 28 -18 30 -2 48 16
18 16 20 -3 34 -20 14 -20 15 4 34 26 22 30 22 51 9 13 -8 13 -13 2 -31 -9
-14 -10 -25 -4 -31 18 -18 47 -3 68 37 20 39 23 40 68 38 64 -2 76 -8 76 -37
0 -32 17 -42 39 -22 10 9 23 16 29 16 15 0 52 59 52 83 0 31 32 15 44 -23 14
-45 46 -54 46 -13 0 46 -25 115 -48 133 -11 10 -24 29 -27 43 -6 20 0 30 29
52 35 26 36 29 20 46 -19 22 -70 49 -91 49 -7 0 -13 7 -13 15 0 9 10 15 26 15
14 0 24 5 22 11 -4 13 -87 19 -94 7 -9 -15 -24 -8 -24 11 0 10 -7 24 -15 31
-21 17 -19 30 5 30 11 0 20 -4 20 -9 0 -12 29 -23 42 -15 12 8 -27 50 -63 68
-24 12 -26 11 -22 -4 3 -12 -3 -19 -21 -24 -31 -8 -32 -20 -5 -65 24 -40 14
-57 -24 -40 -22 10 -27 19 -27 51 0 21 5 38 11 38 6 0 8 8 5 18 -4 10 -7 41
-8 68 -1 27 -8 57 -17 67 -17 20 -5 51 20 53 8 1 19 2 25 3 16 1 24 37 11 50
-16 16 -37 14 -37 -3 0 -21 -14 -27 -48 -20 l-31 6 4 85 c2 59 8 90 19 102 20
22 21 55 1 71 -18 15 -20 40 -3 40 6 0 19 -6 27 -14 21 -19 137 -24 154 -7 9
9 5 17 -18 36 -33 28 -96 60 -137 70 -15 4 -29 13 -32 21 -3 8 -17 19 -31 24
-14 5 -28 17 -32 27 -4 9 -31 41 -60 70 -45 45 -52 57 -43 73 18 34 12 47 -20
42 -22 -3 -30 0 -30 11 0 22 23 27 61 13 19 -7 49 -19 67 -25 22 -9 32 -20 32
-34 1 -22 1 -22 16 -2 12 16 18 17 33 8 10 -7 28 -9 40 -6 21 5 21 5 -4 39
-14 18 -25 45 -25 61 0 52 -58 202 -107 275 -26 40 -53 87 -59 103 -8 22 -17
29 -32 28 -13 -2 -26 6 -33 18 -10 19 -11 19 -23 3 -10 -13 -17 -14 -31 -7
-10 6 -35 8 -55 6 -43 -6 -63 12 -25 21 30 8 32 22 4 29 -16 4 -19 11 -14 26
8 25 -11 28 -39 6 -25 -19 -52 -19 -60 0 -3 8 -12 15 -21 15 -8 0 -15 7 -15
15 0 8 7 15 15 15 8 0 15 5 15 10 0 6 -6 10 -14 10 -9 0 -16 12 -18 28 -3 25
-7 27 -50 30 -35 2 -52 9 -62 24 -14 19 -13 24 9 50 31 37 31 46 1 58 -23 8
-24 12 -13 39 10 27 8 31 -21 56 -18 15 -32 32 -31 38 0 8 2 8 6 0 8 -22 83 4
83 28 0 5 -5 9 -12 9 -17 0 -118 50 -118 58 0 16 24 32 47 32 29 0 30 26 2 33
-11 3 -23 15 -26 26 -3 14 -13 21 -29 21 -17 0 -24 6 -24 19 0 11 5 23 10 26
6 3 10 14 10 24 0 9 11 32 25 51 42 56 13 53 -49 -5 -32 -30 -70 -58 -84 -61
-15 -4 -34 -12 -42 -19 -8 -7 -37 -15 -64 -18 -32 -3 -55 -12 -63 -23 -12 -17
-16 -16 -51 18 -20 20 -48 42 -62 49 -61 33 -110 77 -126 111 -18 41 -13 71
11 62 19 -8 19 5 0 29 -7 11 -17 38 -20 60 -8 45 -21 77 -33 77 -9 0 -32 -49
-32 -67 0 -21 -30 -15 -51 10 -23 27 -24 41 -4 57 20 17 2 40 -28 37 -18 -2
-22 3 -20 27 3 45 18 53 53 27 17 -12 34 -20 39 -17 4 3 21 -8 36 -24 32 -34
47 -37 65 -14 10 11 23 14 52 9 l39 -7 -3 33 c-2 28 -8 34 -35 41 -19 5 -33
15 -33 23 0 10 -10 15 -30 15 -20 0 -32 6 -36 18 -12 37 -22 47 -55 53 -44 7
-79 30 -79 51 0 23 -14 30 -66 30 -29 1 -44 6 -44 14 0 7 -10 16 -22 19 -13 4
-32 15 -43 25 -20 18 -68 31 -115 31 -13 1 -37 9 -51 20 -22 15 -45 19 -122
19 -87 0 -96 2 -102 20 -3 11 -14 20 -24 20 -10 0 -28 12 -42 26 -33 36 -77
57 -106 51 -16 -3 -27 2 -34 15 -6 11 -13 17 -16 14 -4 -3 -12 -1 -19 4 -8 8
-10 29 -7 70 4 42 2 64 -8 76 -12 14 -14 14 -21 -5 -4 -12 -15 -21 -25 -21
-10 0 -30 -11 -45 -25 -34 -31 -84 -34 -93 -6 -3 11 -16 23 -28 27 -12 4 -40
15 -62 25 -22 10 -65 20 -95 23 -80 7 -214 23 -300 36 -41 7 -100 13 -130 15
-30 2 -84 10 -120 18 -36 8 -79 13 -96 10 -25 -4 -32 -1 -37 16 -4 17 -13 21
-47 21 -22 0 -55 -7 -71 -16 -18 -9 -49 -14 -77 -12 -40 3 -47 6 -50 25 -4 31
37 55 85 51 32 -2 38 0 38 16 0 13 9 20 25 23 14 2 32 11 40 19 13 14 9 15
-45 12 -33 -3 -121 -19 -195 -36 -166 -39 -169 -39 -176 -3 -4 17 -25 45 -56
72 -54 47 -75 54 -96 36 -9 -7 -45 -10 -96 -9 -79 3 -82 4 -113 39 -19 20 -33
46 -33 60 0 15 -5 23 -12 20 -7 -2 -13 -19 -13 -38 -1 -36 -12 -69 -24 -69 -4
0 -13 11 -19 25 -6 14 -18 25 -26 25 -7 0 -17 11 -20 24 -4 17 -14 26 -33 28
-19 2 -36 17 -62 55 -34 51 -35 52 -62 38 -23 -13 -33 -13 -66 -1 -21 7 -53
11 -70 9 -32 -5 -33 -5 -30 33 l2 38 -94 2 c-90 2 -96 3 -114 28 -16 22 -26
26 -65 26 l-47 -1 30 -14z m-1027 -201 c18 -8 32 -17 32 -20 0 -2 -18 -4 -40
-4 -33 0 -40 3 -40 20 0 24 7 25 48 4z m1242 -5 c0 -5 -4 -9 -10 -9 -5 0 -10
7 -10 16 0 8 5 12 10 9 6 -3 10 -10 10 -16z m125 11 c3 -5 1 -10 -4 -10 -6 0
-11 5 -11 10 0 6 2 10 4 10 3 0 8 -4 11 -10z m165 -30 c0 -5 -4 -10 -9 -10 -6
0 -13 5 -16 10 -3 6 1 10 9 10 9 0 16 -4 16 -10z m-1910 -25 c0 -8 -7 -15 -15
-15 -16 0 -20 12 -8 23 11 12 23 8 23 -8z m160 5 c22 -14 1 -30 -33 -24 -64
11 -77 15 -77 24 0 11 92 11 110 0z m-517 -125 c-1 -5 -11 -11 -23 -13 -39 -6
-21 -25 19 -19 31 4 44 1 57 -14 16 -18 16 -19 -14 -25 -18 -4 -32 -10 -32
-14 0 -4 -30 -11 -67 -15 -38 -3 -78 -9 -90 -12 -14 -3 -23 -1 -23 6 0 19 51
61 75 61 28 0 38 10 24 26 -6 7 -8 18 -4 24 8 14 81 9 78 -5z m2744 -51 c-9
-9 -28 6 -21 18 4 6 10 6 17 -1 6 -6 8 -13 4 -17z m-2529 -26 c-4 -28 -39 -36
-58 -13 -12 14 -11 18 1 26 8 5 24 9 37 9 19 0 23 -5 20 -22z m2479 -41 c-1
-5 -19 -12 -38 -14 -26 -2 -41 2 -54 17 -19 20 -18 21 18 16 20 -2 39 0 43 5
7 12 36 -10 31 -24z m-287 2 c0 -5 -4 -9 -10 -9 -5 0 -10 7 -10 16 0 8 5 12
10 9 6 -3 10 -10 10 -16z m-2130 -9 c0 -5 -7 -7 -15 -4 -8 4 -12 10 -9 15 6
11 24 2 24 -11z m2806 -2 c8 -13 -22 -38 -48 -38 -21 0 -24 20 -6 38 15 15 45
15 54 0z m-2894 -14 c21 -13 4 -24 -40 -24 -54 0 -63 5 -55 27 5 12 15 14 46
9 22 -4 44 -9 49 -12z m73 -34 c-3 -5 -10 -10 -16 -10 -5 0 -9 5 -9 10 0 6 7
10 16 10 8 0 12 -4 9 -10z m3895 -280 c0 -5 -7 -10 -15 -10 -8 0 -15 5 -15 10
0 6 7 10 15 10 8 0 15 -4 15 -10z m-4846 -15 c-10 -8 -23 -14 -29 -14 -5 0 -1
6 9 14 11 8 24 15 30 15 5 0 1 -7 -10 -15z m-15 -61 l-24 -27 30 6 c34 6 65
-7 65 -27 0 -14 -42 -46 -60 -46 -7 0 -30 -15 -53 -34 -23 -18 -60 -42 -82
-51 -22 -10 -61 -38 -87 -62 -39 -36 -54 -43 -87 -43 -22 0 -41 5 -44 13 -7
20 71 88 167 144 12 7 29 13 38 13 10 0 23 9 30 21 7 11 28 29 46 41 24 15 30
24 23 31 -19 19 -12 36 17 40 15 2 31 5 36 6 5 0 -1 -11 -15 -25z m-99 -52 c0
-4 -13 -13 -30 -19 -32 -12 -41 -1 -12 16 21 12 42 14 42 3z m304 -51 c3 -5
-1 -11 -9 -15 -9 -3 -15 0 -15 9 0 16 16 20 24 6z m-113 -21 c15 -9 17 -15 9
-30 -11 -21 -99 -70 -125 -70 -9 0 -21 -13 -26 -30 -12 -34 -13 -34 -40 -20
-18 10 -17 13 14 45 19 19 51 47 73 61 21 15 43 33 47 40 10 17 22 18 48 4z
m-471 -170 c0 -5 -2 -10 -4 -10 -3 0 -8 5 -11 10 -3 6 -1 10 4 10 6 0 11 -4
11 -10z m68 -38 c2 -7 -5 -12 -16 -12 -11 0 -22 -7 -26 -15 -8 -22 -36 -18
-36 5 0 13 7 20 19 20 11 0 23 5 26 11 8 12 27 7 33 -9z m-420 -150 c2 -7 -3
-12 -12 -12 -9 0 -16 7 -16 16 0 17 22 14 28 -4z m7176 -401 c3 -5 -6 -16 -20
-26 -20 -13 -29 -14 -38 -5 -8 8 -6 15 8 26 23 16 42 18 50 5z m-3252 -108
c-2 -7 -8 -10 -13 -7 -11 6 -12 58 -1 68 8 9 20 -43 14 -61z m2315 5 c-3 -7
-5 -2 -5 12 0 14 2 19 5 13 2 -7 2 -19 0 -25z m-6792 -58 c7 -23 -1 -40 -19
-40 -9 0 -12 -9 -8 -25 2 -15 0 -25 -7 -25 -16 0 -25 28 -13 43 5 6 12 24 16
40 8 32 22 35 31 7z m6805 -35 c0 -33 -4 -55 -11 -55 -8 0 -8 59 1 108 0 1 2
2 5 2 3 0 5 -25 5 -55z m1114 22 c16 -12 17 -14 1 -27 -9 -7 -41 -15 -71 -18
-45 -4 -54 -2 -54 12 0 9 8 16 18 16 9 1 28 7 42 15 31 18 42 18 64 2z m8 -89
c23 -13 47 -38 48 -50 0 -5 -54 -28 -66 -28 -2 0 -1 13 2 29 4 16 1 32 -5 35
-11 7 -15 26 -6 26 3 0 15 -6 27 -12z m-182 -2 c0 -3 -4 -8 -10 -11 -5 -3 -10
-1 -10 4 0 6 5 11 10 11 6 0 10 -2 10 -4z m-2772 -128 c-6 -18 -28 -21 -28 -4
0 9 7 16 16 16 9 0 14 -5 12 -12z m2972 -13 c0 -8 -9 -15 -20 -15 -20 0 -26
11 -13 23 12 13 33 7 33 -8z m50 -205 c0 -5 -7 -10 -15 -10 -10 0 -15 -10 -15
-30 0 -33 -11 -38 -30 -15 -10 12 -9 20 4 40 16 24 56 35 56 15z m370 -142 c6
-7 29 -38 51 -68 22 -30 52 -62 67 -71 39 -22 80 -104 81 -161 1 -26 -3 -49
-8 -53 -6 -3 -36 5 -68 18 -48 19 -58 27 -58 48 0 17 -6 24 -20 25 -11 0 -33
6 -48 12 -16 7 -37 12 -47 12 -10 0 -21 4 -25 9 -3 6 -37 27 -75 48 -83 44
-89 63 -29 94 23 11 43 29 46 39 3 10 26 28 51 39 55 24 67 25 82 9z m-3232
-160 c-16 -24 -68 -40 -88 -28 -15 10 12 31 53 40 49 12 50 12 35 -12z m1812
-257 c0 -33 -4 -63 -10 -66 -6 -4 -10 18 -10 59 0 37 4 66 10 66 6 0 10 -26
10 -59z m153 45 c3 -8 3 -31 0 -51 -7 -45 -23 -27 -23 28 0 37 13 50 23 23z
m1250 -16 c-3 -11 -7 -20 -9 -20 -2 0 -4 9 -4 20 0 11 4 20 9 20 5 0 7 -9 4
-20z m-1178 -82 c11 -51 10 -63 -5 -63 -10 0 -16 13 -18 43 -3 44 14 59 23 20z
m-540 -64 c-3 -24 -10 -44 -15 -44 -9 0 -4 81 7 110 10 26 16 -18 8 -66z m505
-8 c0 -8 -4 -18 -10 -21 -5 -3 -10 3 -10 14 0 12 5 21 10 21 6 0 10 -6 10 -14z
m1370 -36 c8 0 25 -16 38 -35 22 -34 16 -49 -7 -21 -7 8 -26 18 -42 21 -23 5
-29 12 -29 33 0 20 3 23 12 14 7 -7 19 -12 28 -12z m-660 -160 c0 -5 -2 -10
-4 -10 -3 0 -8 5 -11 10 -3 6 -1 10 4 10 6 0 11 -4 11 -10z m547 -22 c-3 -8
-6 -5 -6 6 -1 11 2 17 5 13 3 -3 4 -12 1 -19z m-319 -100 c-6 -18 -28 -21 -28
-4 0 9 7 16 16 16 9 0 14 -5 12 -12z m177 -38 c3 -5 1 -10 -4 -10 -6 0 -11 5
-11 10 0 6 2 10 4 10 3 0 8 -4 11 -10z m-6255 -140 c0 -5 -4 -10 -10 -10 -5 0
-10 5 -10 10 0 6 5 10 10 10 6 0 10 -4 10 -10z m5531 -243 c-18 -18 -21 -19
-21 -5 0 22 33 55 38 38 3 -7 -5 -22 -17 -33z m1357 -333 c4 -25 -32 -59 -53
-51 -22 9 -18 42 8 60 27 19 41 17 45 -9z m-829 -86 c-11 -19 -14 -20 -17 -6
-2 9 2 27 9 40 11 19 14 20 17 6 2 -9 -2 -27 -9 -40z m-299 -237 c0 -5 -7 -11
-15 -15 -15 -5 -20 5 -8 17 9 10 23 9 23 -2z m200 -21 c0 -5 -4 -10 -10 -10
-5 0 -10 5 -10 10 0 6 5 10 10 10 6 0 10 -4 10 -10z m-375 -40 c-10 -11 -20
-18 -23 -15 -3 3 3 14 13 25 10 11 20 18 23 15 3 -3 -3 -14 -13 -25z m503 -85
c-3 -3 -9 2 -12 12 -6 14 -5 15 5 6 7 -7 10 -15 7 -18z m-9154 -6 c-3 -5 -10
-7 -15 -3 -5 3 -7 10 -3 15 3 5 10 7 15 3 5 -3 7 -10 3 -15z m8830 -85 c8 -20
8 -19 -21 -28 -24 -8 -28 0 -17 28 8 21 30 20 38 0z m714 -149 c13 -14 33 -25
47 -25 14 0 25 -4 25 -10 0 -17 -62 -11 -107 10 -24 10 -43 23 -43 28 0 31 50
29 78 -3z m-526 -95 c3 -16 1 -30 -4 -30 -4 0 -8 14 -8 30 0 17 2 30 4 30 2 0
6 -13 8 -30z m466 2 c2 -7 -3 -12 -12 -12 -9 0 -16 7 -16 16 0 17 22 14 28 -4z
m-10 -70 c2 -24 -1 -32 -13 -32 -11 0 -14 6 -9 25 4 15 2 25 -5 25 -6 0 -11 5
-11 11 0 6 8 9 18 7 11 -2 18 -14 20 -36z m-1058 -51 c0 -12 -29 -23 -41 -15
-18 10 -9 24 16 24 14 0 25 -4 25 -9z m50 -30 c0 -14 -28 -33 -39 -27 -16 10
-1 36 20 36 10 0 19 -4 19 -9z m1073 -3 c12 -7 24 -16 27 -19 3 -3 13 -8 23
-12 19 -7 25 -71 7 -82 -17 -10 -109 26 -115 46 -4 12 -16 19 -30 19 -23 0
-45 25 -45 49 0 15 105 14 133 -1z m-42 -108 c5 0 9 -7 9 -15 0 -10 10 -15 30
-15 30 0 42 -21 20 -35 -5 -3 -10 -15 -10 -26 0 -14 -6 -19 -17 -17 -12 2 -18
14 -20 38 -2 23 -12 43 -30 59 -18 16 -21 22 -10 18 10 -4 23 -7 28 -7z m-11
-228 c0 -12 -62 -68 -83 -75 -13 -5 -16 -13 -11 -32 5 -21 3 -25 -15 -25 -14
0 -21 6 -21 18 0 10 -5 23 -11 29 -15 15 -4 43 17 43 9 0 28 8 42 19 23 16 47
26 75 30 4 0 7 -3 7 -7z m-1700 -29 c-1 -27 -1 -27 -15 -9 -14 19 -12 36 6 36
5 0 9 -12 9 -27z m1780 7 c0 -23 -33 -60 -55 -60 -8 0 -15 9 -15 20 0 23 33
60 55 60 8 0 15 -9 15 -20z m-1930 -45 c0 -8 -9 -15 -20 -15 -20 0 -26 11 -13
23 12 13 33 7 33 -8z m-59 -5 c5 0 9 -13 9 -30 0 -23 3 -28 16 -23 14 5 16 2
10 -23 -10 -39 -22 -52 -56 -59 -36 -8 -86 20 -57 31 13 4 17 19 17 54 0 48
11 63 38 54 8 -2 18 -4 23 -4z m-170 -42 c6 -13 23 -35 37 -50 l25 -27 -34 -9
-34 -10 34 -15 34 -15 -34 -15 c-22 -11 -56 -16 -99 -14 -58 2 -65 4 -68 23
-3 18 4 22 50 30 43 7 53 13 53 29 0 17 -8 20 -50 23 -48 3 -75 15 -75 34 0 5
5 6 11 3 5 -4 18 0 27 8 19 17 43 24 84 26 19 1 31 -6 39 -21z m-189 -160
c-28 -11 -42 -9 -42 6 0 19 21 25 42 12 17 -10 17 -11 0 -18z m-147 -93 c129
-20 163 -29 147 -39 -21 -13 -159 3 -173 20 -6 8 -28 14 -48 14 -20 1 -47 7
-61 16 -29 16 -45 18 135 -11z m-1629 -92 c-10 -10 -19 5 -10 18 6 11 8 11 12
0 2 -7 1 -15 -2 -18z m472 9 c3 -9 -2 -13 -14 -10 -9 1 -19 9 -22 16 -3 9 2
13 14 10 9 -1 19 -9 22 -16z m-268 -16 c0 -8 -4 -17 -10 -21 -5 -3 -7 -11 -5
-18 7 -19 -11 -39 -31 -35 -22 4 -23 50 -3 74 15 18 49 18 49 0z m3880 -32 c0
-17 -36 -19 -46 -3 -8 14 14 29 33 22 7 -3 13 -11 13 -19z m-499 -4 c10 0 19
-7 19 -15 0 -18 -5 -18 -31 -5 -10 6 -19 18 -18 28 0 10 3 12 6 5 2 -7 13 -13
24 -13z m-2480 -37 c5 -13 15 -23 24 -23 8 0 15 -4 15 -10 0 -17 -29 -11 -50
10 -11 11 -26 20 -34 20 -7 0 -19 7 -26 15 -7 8 -19 15 -27 15 -8 0 -12 4 -9
9 3 4 26 4 52 -2 33 -8 48 -17 55 -34z m-1391 7 c0 -11 -4 -20 -9 -20 -5 0 -7
9 -4 20 3 11 7 20 9 20 2 0 4 -9 4 -20z m-869 -34 c-16 -19 -51 -27 -51 -12 0
11 50 36 59 29 2 -1 -1 -9 -8 -17z m2374 0 c17 -13 27 -27 24 -31 -4 -3 -22 8
-40 24 -40 37 -27 41 16 7z m-2545 -31 c0 -11 -7 -12 -39 -6 -2 1 2 8 9 16 14
16 30 11 30 -10z m5560 2 c0 -14 -20 -37 -32 -37 -4 0 -8 11 -8 25 0 18 5 25
20 25 11 0 20 -6 20 -13z m-82 -9 c27 -35 24 -58 -12 -94 -31 -31 -41 -35 -66
-30 -28 5 -30 4 -24 -19 5 -21 1 -27 -22 -36 -16 -6 -46 -12 -67 -14 -20 -1
-46 -10 -56 -19 -28 -25 -187 -24 -251 2 -34 13 -80 56 -80 74 0 13 24 9 50
-9 37 -26 198 -27 250 -2 21 11 46 16 54 13 9 -3 16 -1 16 5 0 6 -14 11 -31
11 -27 0 -30 2 -19 15 7 8 19 15 26 15 8 0 43 14 77 30 35 17 69 30 75 30 7 0
21 9 32 20 23 23 34 25 48 8z m-2986 -40 c15 -7 29 -20 32 -28 4 -8 9 -21 12
-29 5 -10 1 -11 -15 -6 -12 4 -21 2 -21 -4 0 -20 -15 -11 -32 20 -19 32 -23
59 -10 59 4 0 20 -6 34 -12z m142 -60 c5 -4 7 -10 3 -14 -9 -9 -67 19 -67 33
0 10 6 10 28 1 15 -7 31 -15 36 -20z m-2014 18 c0 -3 -4 -8 -10 -11 -5 -3 -10
-1 -10 4 0 6 5 11 10 11 6 0 10 -2 10 -4z m-4443 -181 c3 -9 3 -18 0 -21 -10
-10 -47 7 -47 22 0 19 39 18 47 -1z m4143 -40 c0 4 7 2 15 -5 12 -10 13 -16 4
-26 -14 -17 -49 -18 -49 -1 0 6 -3 23 -7 37 -6 25 -6 25 15 6 12 -11 22 -16
22 -11z m-3970 -51 c0 -9 -5 -14 -12 -12 -18 6 -21 28 -4 28 9 0 16 -7 16 -16z
m4124 10 c9 -3 16 -10 16 -16 0 -14 -63 -5 -68 10 -4 13 25 16 52 6z m86 -4
c0 -5 -5 -10 -11 -10 -5 0 -7 5 -4 10 3 6 8 10 11 10 2 0 4 -4 4 -10z m-166
-26 c3 -8 -1 -22 -9 -30 -8 -9 -15 -20 -15 -25 0 -5 -4 -9 -10 -9 -11 0 -14
63 -3 73 11 12 31 7 37 -9z m484 -12 c2 -7 -3 -12 -12 -12 -9 0 -16 7 -16 16
0 17 22 14 28 -4z m-4558 -52 c0 -5 -4 -10 -10 -10 -5 0 -10 5 -10 10 0 6 5
10 10 10 6 0 10 -4 10 -10z m4490 -54 c0 -3 -4 -8 -10 -11 -5 -3 -10 -1 -10 4
0 6 5 11 10 11 6 0 10 -2 10 -4z m568 -91 c2 -2 1 -8 -3 -14 -4 -8 -12 -8 -26
-1 -19 11 -21 9 -23 -19 -1 -8 -6 -16 -11 -18 -15 -5 -17 49 -3 59 12 7 57 2
66 -7z m1782 1 c0 -2 -9 -6 -20 -9 -11 -3 -20 -1 -20 4 0 5 9 9 20 9 11 0 20
-2 20 -4z m-90 -31 c-7 -8 -16 -12 -21 -9 -13 8 -1 24 18 24 13 0 13 -3 3 -15z
m530 -21 c0 -2 -15 -4 -32 -4 -23 0 -29 3 -19 9 12 8 51 4 51 -5z m18 -72 c2
-7 -4 -15 -13 -18 -20 -8 -27 -1 -19 20 7 18 25 17 32 -2z m-7076 -387 c-2
-19 -8 -38 -13 -41 -10 -6 -12 59 -2 69 14 15 19 6 15 -28z m6506 -977 c-3 -7
-16 -15 -31 -19 -22 -6 -27 -4 -27 12 0 15 7 19 31 19 19 0 29 -4 27 -12z
m-648 -268 c-8 -5 -18 -6 -24 -3 -5 4 -1 10 10 13 24 9 34 2 14 -10z m-5514
-624 c-8 -14 -18 -43 -22 -65 -9 -58 -24 -51 -24 12 0 56 12 77 43 77 18 0 18
-1 3 -24z m2 -163 c24 -51 18 -97 -14 -111 -13 -7 -24 -18 -24 -27 0 -17 -18
-19 -40 -5 -12 8 -9 15 22 42 28 25 37 42 40 70 1 20 -1 40 -5 44 -4 4 -7 11
-7 16 0 17 10 6 28 -29z m4083 -1436 c-1 -4 -1 -14 -1 -23 0 -13 -3 -14 -14
-4 -16 12 -10 43 6 38 5 -2 9 -7 9 -11z m427 -460 c2 -10 -3 -17 -11 -17 -16
0 -30 24 -19 34 10 10 27 1 30 -17z m443 -141 c-10 -11 -9 -19 1 -35 7 -11 9
-23 5 -27 -11 -11 -18 1 -28 46 -11 49 -3 69 19 46 12 -12 13 -18 3 -30z
m-343 -38 c-2 -55 -8 -60 -25 -21 -16 34 -16 66 -1 81 18 18 27 -3 26 -60z
m386 36 c4 -10 1 -14 -6 -12 -15 5 -23 28 -10 28 5 0 13 -7 16 -16z m40 -60
c3 -9 5 -30 5 -47 -1 -21 -3 -25 -6 -12 -3 11 -9 24 -14 30 -12 12 -12 45 0
45 5 0 12 -7 15 -16z m-190 -396 c27 -78 41 -147 30 -158 -16 -16 -66 27 -59
50 5 15 2 17 -15 13 -14 -4 -20 -14 -20 -35 0 -19 -4 -27 -11 -22 -7 4 -9 21
-5 44 4 27 2 41 -9 50 -8 7 -15 18 -15 24 0 14 38 38 49 31 5 -2 12 6 15 20 9
36 22 31 40 -17z m-134 -65 c0 -8 8 -28 17 -44 14 -23 15 -31 5 -41 -10 -10
-21 -4 -52 30 -45 48 -47 57 -23 91 l16 24 19 -23 c10 -12 18 -29 18 -37z
m-412 -46 c5 -17 6 -52 2 -77 -6 -42 -7 -43 -14 -17 -5 15 -15 27 -25 27 -18
0 -46 54 -36 70 3 6 10 8 15 5 4 -3 13 2 20 10 19 23 28 18 38 -18z m-193 -44
c-7 -17 -8 -17 -15 2 -9 24 -2 41 12 27 6 -6 7 -19 3 -29z m2 -55 c-3 -8 -6
-5 -6 6 -1 11 2 17 5 13 3 -3 4 -12 1 -19z m1324 -188 c27 -15 24 -28 -6 -22
-14 2 -25 11 -25 18 0 17 5 17 31 4z m29 -200 c0 -11 -4 -20 -9 -20 -14 0 -23
18 -16 30 10 17 25 11 25 -10z m-950 -250 c0 -5 -5 -10 -11 -10 -5 0 -7 5 -4
10 3 6 8 10 11 10 2 0 4 -4 4 -10z m-68 -382 c-7 -7 -28 -13 -48 -15 l-36 -2
7 42 c10 61 14 63 53 23 29 -28 34 -38 24 -48z m-42 -64 c0 -8 -4 -12 -10 -9
-5 3 -10 10 -10 16 0 5 5 9 10 9 6 0 10 -7 10 -16z m110 -30 c0 -22 -16 -17
-17 6 -1 11 2 18 8 15 5 -4 9 -13 9 -21z m1945 -34 c3 -5 -1 -10 -9 -10 -9 0
-16 5 -16 10 0 6 4 10 9 10 6 0 13 -4 16 -10z m-1772 -66 c12 -4 35 -10 52
-13 17 -4 31 -13 33 -23 3 -15 -2 -17 -29 -11 -18 3 -40 14 -51 25 -13 13 -27
17 -46 13 -15 -4 -37 -8 -50 -11 -13 -3 -27 -2 -32 1 -13 8 -1 35 15 35 7 0
16 6 19 13 5 10 7 10 12 0 10 -23 44 -15 45 10 2 19 3 18 6 -4 3 -17 13 -30
26 -35z m1277 -334 c0 -5 -4 -10 -10 -10 -5 0 -10 5 -10 10 0 6 5 10 10 10 6
0 10 -4 10 -10z m-360 -10 c0 -5 -4 -10 -10 -10 -5 0 -10 5 -10 10 0 6 5 10
10 10 6 0 10 -4 10 -10z m190 0 c0 -5 -4 -10 -10 -10 -5 0 -10 5 -10 10 0 6 5
10 10 10 6 0 10 -4 10 -10z m34 -55 c-6 -16 -24 -21 -24 -7 0 11 11 22 21 22
5 0 6 -7 3 -15z m-343 -5 c5 0 9 -4 9 -10 0 -5 -13 -10 -30 -10 -29 0 -38 9
-23 24 4 3 13 4 21 1 7 -3 18 -5 23 -5z m-84 -29 c7 -10 8 -20 2 -25 -5 -5
-10 -8 -11 -5 -2 2 -14 16 -27 31 l-23 27 23 -6 c13 -4 29 -14 36 -22z m-300
-73 c-3 -8 -6 -5 -6 6 -1 11 2 17 5 13 3 -3 4 -12 1 -19z m238 -647 c-3 -12
-13 -21 -21 -21 -17 0 -19 31 -2 48 17 17 32 -1 23 -27z m-72 -83 c-2 -5 -13
-8 -23 -8 -13 0 -17 5 -14 15 5 11 2 13 -10 9 -20 -8 -20 0 0 20 14 15 17 14
34 -6 10 -13 16 -26 13 -30z m67 19 c0 -8 -3 -17 -7 -20 -9 -9 -34 13 -27 24
8 14 34 11 34 -4z m-120 -27 c0 -5 -5 -10 -11 -10 -5 0 -7 5 -4 10 3 6 8 10
11 10 2 0 4 -4 4 -10z m45 -29 c-3 -6 -14 -11 -23 -11 -13 0 -13 2 4 14 21 15
30 14 19 -3z m-520 -641 c3 -5 0 -10 -9 -10 -8 0 -16 -6 -19 -12 -2 -7 -8 -10
-12 -6 -7 7 14 37 27 38 4 0 10 -4 13 -10z m-45 -70 c0 -5 -4 -10 -10 -10 -5
0 -10 5 -10 10 0 6 5 10 10 10 6 0 10 -4 10 -10z m-495 -360 c21 -22 47 -40
56 -40 12 0 15 -6 11 -27 -5 -25 -6 -25 -19 -7 -8 10 -18 18 -23 17 -7 -2 -90
83 -90 93 0 15 32 -2 65 -36z m0 -80 c-3 -5 -11 -10 -16 -10 -6 0 -7 5 -4 10
3 6 11 10 16 10 6 0 7 -4 4 -10z m45 -24 c0 -3 -4 -8 -10 -11 -5 -3 -10 -1
-10 4 0 6 5 11 10 11 6 0 10 -2 10 -4z m-1424 -442 c18 -14 18 -14 -6 -3 -31
14 -36 19 -24 19 6 0 19 -7 30 -16z m1164 -50 c0 -8 -5 -12 -10 -9 -6 4 -8 11
-5 16 9 14 15 11 15 -7z m-1033 -16 c-3 -8 -6 -5 -6 6 -1 11 2 17 5 13 3 -3 4
-12 1 -19z m-118 -7 c7 -5 12 -14 9 -21 -2 -8 -11 -5 -28 9 -17 14 -20 20 -10
21 8 0 21 -4 29 -9z m238 -46 c0 -8 -4 -12 -9 -9 -5 3 -6 10 -3 15 9 13 12 11
12 -6z m48 -17 c-4 -34 -5 -35 -16 -15 -10 17 -5 37 10 37 5 0 7 -10 6 -22z
m-205 8 c0 -11 -19 -15 -25 -6 -3 5 1 10 9 10 9 0 16 -2 16 -4z m350 0 c0 -3
-4 -8 -10 -11 -5 -3 -10 -1 -10 4 0 6 5 11 10 11 6 0 10 -2 10 -4z m-100 -46
c0 -5 -5 -10 -11 -10 -5 0 -7 5 -4 10 3 6 8 10 11 10 2 0 4 -4 4 -10z m458
-24 c-11 -10 -58 -15 -58 -6 0 5 11 10 25 10 17 0 25 6 26 18 1 15 2 15 6 -1
3 -10 3 -20 1 -21z m-88 -20 c-14 -14 -24 0 -16 21 6 15 8 15 16 3 6 -9 5 -19
0 -24z m140 -26 c0 -5 -4 -10 -10 -10 -5 0 -10 5 -10 10 0 6 5 10 10 10 6 0
10 -4 10 -10z m202 -55 c0 -8 1 -20 2 -27 1 -6 -6 -12 -16 -14 -19 -2 -32 43
-14 50 20 8 26 6 28 -9z m63 -73 c-2 -2 -11 2 -19 11 -8 8 -12 18 -8 21 3 4
12 -1 19 -10 7 -10 11 -20 8 -22z m-185 14 c0 -11 -19 -15 -25 -6 -3 5 1 10 9
10 9 0 16 -2 16 -4z m115 -16 c3 -5 1 -10 -4 -10 -6 0 -11 5 -11 10 0 6 2 10
4 10 3 0 8 -4 11 -10z m55 -20 c0 -5 -5 -10 -11 -10 -5 0 -7 5 -4 10 3 6 8 10
11 10 2 0 4 -4 4 -10z m-1110 -120 c0 -5 -4 -10 -10 -10 -5 0 -10 5 -10 10 0
6 5 10 10 10 6 0 10 -4 10 -10z m-34 -77 c-4 -9 -1 -20 5 -24 14 -8 3 -29 -17
-29 -12 0 -14 33 -5 68 1 1 6 2 12 2 6 0 8 -7 5 -17z m9 -143 c3 -5 1 -10 -4
-10 -6 0 -11 5 -11 10 0 6 2 10 4 10 3 0 8 -4 11 -10z m-681 -17 c10 -37 1
-66 -23 -74 -21 -8 -23 -7 -17 15 3 13 9 31 12 40 4 10 1 16 -9 16 -9 0 -18
-8 -20 -17 -3 -11 -5 -7 -6 10 -1 24 3 27 28 27 20 0 31 -6 35 -17z m-34 -102
c0 -21 -13 -41 -26 -41 -17 0 -18 22 -2 38 14 14 28 16 28 3z m13 -78 c-13 -2
-23 -11 -23 -19 0 -21 -34 -13 -38 9 -3 14 4 17 40 16 24 -1 33 -4 21 -6z m-5
-109 c-4 -3 -12 5 -18 18 -12 22 -12 22 6 6 10 -10 15 -20 12 -24z m-62 -41
c-10 -10 -19 5 -10 18 6 11 8 11 12 0 2 -7 1 -15 -2 -18z m154 -823 c0 -12
-24 -12 -60 0 -21 7 -19 8 18 9 23 1 42 -3 42 -9z m37 -20 c-1 -11 -7 -20 -14
-20 -11 0 -11 4 -1 20 7 11 14 20 15 20 1 0 1 -9 0 -20z m-174 -62 c-2 -4 -12
0 -23 9 -18 15 -18 17 -2 29 14 11 18 9 23 -9 3 -12 4 -25 2 -29z m57 38 c0
-2 -7 -7 -16 -10 -8 -3 -12 -2 -9 4 6 10 25 14 25 6z m120 -16 c13 -8 13 -10
-2 -10 -9 0 -20 5 -23 10 -8 13 5 13 25 0z m-77 -31 c3 -12 0 -19 -9 -19 -8 0
-14 4 -14 9 0 5 -3 17 -6 25 -4 12 -2 15 9 10 8 -3 17 -14 20 -25z m-323 -79
c0 -5 -5 -10 -11 -10 -5 0 -7 5 -4 10 3 6 8 10 11 10 2 0 4 -4 4 -10z m35 -60
c13 0 27 -5 31 -11 3 -6 18 -9 32 -6 25 5 25 4 7 -9 -10 -8 -27 -14 -37 -14
-15 0 -17 -5 -12 -25 4 -15 2 -25 -5 -25 -6 0 -11 9 -11 20 0 13 -9 22 -25 26
-21 5 -25 12 -25 43 1 29 3 33 11 19 5 -10 21 -18 34 -18z m241 -36 c-5 -14
-9 -15 -19 -5 -9 9 -9 14 3 21 18 11 24 6 16 -16z m1954 -10479 c0 -8 -4 -15
-10 -15 -5 0 -10 7 -10 15 0 8 5 15 10 15 6 0 10 -7 10 -15z"/>
<path d="M24233 26070 c-35 -14 -28 -20 23 -20 40 0 45 2 34 15 -14 17 -25 18
-57 5z"/>
<path d="M18500 28601 c0 -11 29 -35 35 -29 10 9 -7 38 -21 38 -8 0 -14 -4
-14 -9z"/>
<path d="M19545 28560 c3 -5 14 -10 23 -10 15 0 15 2 2 10 -20 13 -33 13 -25
0z"/>
<path d="M20530 28524 c0 -16 62 -80 108 -111 28 -20 41 -9 19 15 -10 10 -17
21 -17 25 0 11 -85 86 -97 87 -7 0 -13 -7 -13 -16z"/>
<path d="M21331 28331 c-24 -16 12 -41 58 -41 46 0 61 14 32 30 -13 7 -22 7
-26 0 -10 -16 -28 -12 -21 5 6 17 -20 20 -43 6z"/>
<path d="M21780 28270 c0 -5 5 -10 10 -10 6 0 10 -7 10 -15 0 -8 9 -15 20 -15
25 0 26 12 2 33 -21 19 -42 22 -42 7z"/>
<path d="M17410 28260 c0 -6 12 -15 26 -20 36 -14 39 -13 19 10 -19 21 -45 27
-45 10z"/>
<path d="M21866 28241 c-15 -17 -15 -19 -1 -25 9 -3 30 -6 47 -6 17 0 53 -7
82 -16 98 -31 118 -36 122 -31 9 9 -27 37 -47 37 -11 0 -43 14 -72 30 -61 34
-106 38 -131 11z"/>
<path d="M21610 28226 c0 -10 9 -16 21 -16 24 0 21 23 -4 28 -10 2 -17 -3 -17
-12z"/>
<path d="M22158 28143 c7 -3 16 -2 19 1 4 3 -2 6 -13 5 -11 0 -14 -3 -6 -6z"/>
<path d="M17105 27950 c-3 -5 -1 -10 4 -10 6 0 11 5 11 10 0 6 -2 10 -4 10 -3
0 -8 -4 -11 -10z"/>
<path d="M17050 27894 c0 -8 5 -12 10 -9 6 3 10 10 10 16 0 5 -4 9 -10 9 -5 0
-10 -7 -10 -16z"/>
<path d="M22545 27870 c-6 -10 4 -40 14 -40 3 1 17 7 31 15 26 14 27 13 -25
30 -8 2 -17 0 -20 -5z"/>
<path d="M22676 27842 c-3 -6 -1 -14 5 -17 15 -10 25 3 12 16 -7 7 -13 7 -17
1z"/>
<path d="M23403 27148 c3 -13 9 -40 12 -60 4 -21 11 -35 16 -32 13 8 11 88 -3
102 -19 19 -31 14 -25 -10z"/>
<path d="M24155 26890 c-15 -7 -10 -9 23 -9 23 -1 42 4 42 9 0 12 -37 12 -65
0z"/>
<path d="M23995 26531 c-3 -6 3 -15 14 -20 28 -16 33 -14 21 9 -12 22 -25 26
-35 11z"/>
<path d="M24110 26508 c1 -31 25 -61 47 -56 29 5 21 40 -14 61 l-33 19 0 -24z"/>
<path d="M24252 26348 c-24 -12 -25 -29 -2 -36 7 -3 10 0 6 6 -3 6 -1 14 5 17
6 4 13 -2 16 -14 3 -12 12 -21 19 -21 12 0 12 5 -1 30 -9 17 -17 30 -18 29 -1
0 -12 -5 -25 -11z"/>
<path d="M24795 25400 c3 -5 8 -10 11 -10 2 0 4 5 4 10 0 6 -5 10 -11 10 -5 0
-7 -4 -4 -10z"/>
<path d="M24850 25359 c0 -5 5 -7 10 -4 6 3 10 8 10 11 0 2 -4 4 -10 4 -5 0
-10 -5 -10 -11z"/>
<path d="M24560 24321 c0 -5 5 -13 10 -16 6 -3 10 -2 10 4 0 5 -4 13 -10 16
-5 3 -10 2 -10 -4z"/>
<path d="M24560 24245 c0 -8 6 -15 14 -15 8 0 17 -6 19 -12 4 -10 6 -10 6 0 1
13 -22 42 -33 42 -3 0 -6 -7 -6 -15z"/>
<path d="M24650 24214 c0 -8 5 -12 10 -9 6 3 10 10 10 16 0 5 -4 9 -10 9 -5 0
-10 -7 -10 -16z"/>
<path d="M24735 24160 c-3 -5 -1 -10 4 -10 6 0 11 5 11 10 0 6 -2 10 -4 10 -3
0 -8 -4 -11 -10z"/>
<path d="M24590 24136 c0 -20 20 -25 65 -16 l40 8 -37 1 c-20 0 -40 6 -43 11
-9 15 -25 12 -25 -4z"/>
<path d="M22807 23348 c-7 -27 -5 -30 17 -22 9 4 16 13 14 22 -5 25 -25 25
-31 0z"/>
<path d="M24640 23320 c0 -5 4 -10 9 -10 6 0 13 5 16 10 3 6 -1 10 -9 10 -9 0
-16 -4 -16 -10z"/>
<path d="M15055 23300 c3 -5 8 -10 11 -10 2 0 4 5 4 10 0 6 -5 10 -11 10 -5 0
-7 -4 -4 -10z"/>
<path d="M24142 22858 c3 -33 13 -48 34 -48 22 0 23 29 3 54 -27 35 -40 33
-37 -6z"/>
<path d="M22238 22663 c7 -3 16 -2 19 1 4 3 -2 6 -13 5 -11 0 -14 -3 -6 -6z"/>
<path d="M20410 22649 c0 -5 5 -7 10 -4 6 3 10 8 10 11 0 2 -4 4 -10 4 -5 0
-10 -5 -10 -11z"/>
<path d="M21313 22633 c-9 -3 -10 -10 -3 -24 12 -22 40 -26 40 -5 0 18 -22 35
-37 29z"/>
<path d="M20500 22605 c0 -8 5 -15 10 -15 6 0 10 7 10 15 0 8 -4 15 -10 15 -5
0 -10 -7 -10 -15z"/>
<path d="M20102 22588 c-17 -17 -15 -38 3 -38 16 0 38 34 28 44 -9 9 -18 7
-31 -6z"/>
<path d="M19730 22514 c0 -8 5 -12 10 -9 6 4 8 11 5 16 -9 14 -15 11 -15 -7z"/>
<path d="M19840 22472 c0 -4 4 -13 9 -21 7 -10 13 -11 31 -1 12 6 19 14 16 17
-9 9 -56 13 -56 5z"/>
<path d="M19928 22454 c-32 -17 -39 -49 -9 -41 10 2 26 0 35 -5 24 -13 44 6
38 37 -5 29 -24 31 -64 9z"/>
<path d="M20140 22444 c0 -8 5 -12 10 -9 6 4 8 11 5 16 -9 14 -15 11 -15 -7z"/>
<path d="M19640 22426 c0 -8 5 -18 10 -21 6 -3 10 3 10 14 0 12 -4 21 -10 21
-5 0 -10 -6 -10 -14z"/>
<path d="M19860 22420 c0 -13 18 -22 24 -11 3 5 -1 11 -9 15 -8 3 -15 1 -15
-4z"/>
<path d="M19895 22330 c-3 -5 -1 -10 4 -10 6 0 11 5 11 10 0 6 -2 10 -4 10 -3
0 -8 -4 -11 -10z"/>
<path d="M19657 22293 c-4 -3 -7 -11 -7 -17 0 -6 5 -5 12 2 6 6 9 14 7 17 -3
3 -9 2 -12 -2z"/>
<path d="M20106 22284 c-14 -10 -17 -17 -10 -24 8 -8 15 -6 23 4 19 23 9 37
-13 20z"/>
<path d="M20040 22266 c0 -8 5 -18 10 -21 6 -3 10 1 10 9 0 8 -4 18 -10 21 -5
3 -10 -1 -10 -9z"/>
<path d="M22820 22050 c0 -5 7 -10 15 -10 8 0 15 5 15 10 0 6 -7 10 -15 10 -8
0 -15 -4 -15 -10z"/>
<path d="M22850 22019 c0 -5 5 -7 10 -4 6 3 10 8 10 11 0 2 -4 4 -10 4 -5 0
-10 -5 -10 -11z"/>
<path d="M24100 21904 c-30 -43 -71 -103 -90 -133 l-34 -54 12 -95 c7 -52 16
-100 21 -106 4 -6 14 -45 21 -86 14 -88 37 -148 49 -134 14 15 40 182 47 299
3 61 12 142 20 180 8 39 14 101 12 139 l-3 69 -55 -79z"/>
<path d="M23670 21530 c0 -11 5 -20 10 -20 6 0 10 9 10 20 0 11 -4 20 -10 20
-5 0 -10 -9 -10 -20z"/>
<path d="M22756 21265 c-3 -8 2 -16 10 -19 8 -3 14 -15 14 -26 0 -17 4 -19 28
-14 73 18 86 30 56 55 -21 17 -101 20 -108 4z"/>
<path d="M21880 20940 c0 -5 5 -10 10 -10 6 0 10 5 10 10 0 6 -4 10 -10 10 -5
0 -10 -4 -10 -10z"/>
<path d="M20680 20626 c0 -9 5 -16 10 -16 6 0 10 4 10 9 0 6 -4 13 -10 16 -5
3 -10 -1 -10 -9z"/>
<path d="M23974 20568 c1 -28 -4 -35 -33 -49 -32 -15 -49 -37 -50 -66 -1 -14
36 -17 63 -7 23 9 20 24 -4 24 -30 0 -24 18 9 25 42 9 53 27 45 69 -8 46 -33
48 -30 4z"/>
<path d="M19800 20335 c0 -14 4 -25 9 -25 12 0 23 29 15 41 -10 18 -24 9 -24
-16z"/>
<path d="M23912 19764 c2 -15 9 -29 16 -32 10 -3 13 4 10 24 -2 15 -9 29 -16
32 -10 3 -13 -4 -10 -24z"/>
<path d="M23971 19696 c-15 -17 -4 -46 18 -46 16 0 43 44 33 55 -10 10 -40 5
-51 -9z"/>
<path d="M19866 19453 c-7 -7 23 -43 36 -43 4 0 8 6 8 13 0 14 -35 39 -44 30z"/>
<path d="M23805 19430 c-3 -5 1 -10 10 -10 9 0 13 5 10 10 -3 6 -8 10 -10 10
-2 0 -7 -4 -10 -10z"/>
<path d="M24097 19230 c-28 -59 -102 -138 -154 -164 -68 -34 -145 -13 -223 60
-38 36 -49 41 -54 28 -10 -25 -8 -31 24 -67 43 -50 121 -81 185 -74 65 7 141
40 184 80 45 43 117 194 82 173 -5 -4 -11 0 -14 6 -2 7 -16 -12 -30 -42z"/>
<path d="M20593 18967 c-4 -7 -28 -21 -53 -32 -53 -23 -220 -180 -220 -207 0
-22 23 -23 54 -2 16 10 26 12 31 5 3 -6 30 -11 59 -11 64 0 209 -50 214 -74 2
-9 10 -16 18 -16 20 0 17 -9 -8 -30 -35 -28 -11 -45 61 -44 57 1 61 3 132 64
144 124 176 162 152 179 -5 3 -23 25 -42 49 -18 23 -40 42 -49 42 -8 0 -23 7
-32 15 -10 9 -53 19 -106 25 -129 15 -155 20 -149 29 2 5 -5 11 -18 15 -31 8
-35 8 -44 -7z m187 -355 c0 -13 -12 -22 -22 -16 -10 6 -1 24 13 24 5 0 9 -4 9
-8z"/>
<path d="M21220 17146 c0 -16 54 -108 58 -98 2 7 -8 32 -23 57 -23 40 -35 54
-35 41z"/>
<path d="M20870 17058 c0 -9 5 -20 10 -23 13 -8 13 5 0 25 -8 13 -10 13 -10
-2z"/>
<path d="M20920 16981 c0 -5 5 -13 10 -16 6 -3 10 -2 10 4 0 5 -4 13 -10 16
-5 3 -10 2 -10 -4z"/>
<path d="M21183 16813 c-15 -5 -18 -33 -4 -33 13 0 33 28 24 33 -4 2 -14 2
-20 0z"/>
<path d="M23027 16744 c-9 -10 2 -24 18 -24 9 0 12 6 9 15 -6 16 -17 19 -27 9z"/>
<path d="M22965 16510 c3 -5 8 -10 11 -10 2 0 4 5 4 10 0 6 -5 10 -11 10 -5 0
-7 -4 -4 -10z"/>
<path d="M21552 16468 c6 -18 28 -21 28 -4 0 9 -7 16 -16 16 -9 0 -14 -5 -12
-12z"/>
<path d="M21473 16424 c-16 -12 -13 -13 25 -14 24 0 41 4 38 9 -10 16 -45 19
-63 5z"/>
<path d="M22846 16402 c-2 -4 -1 -14 4 -22 7 -11 11 -11 24 -1 9 8 16 17 16
22 0 11 -37 12 -44 1z"/>
<path d="M22794 16329 c-3 -6 3 -21 15 -32 17 -18 21 -19 21 -5 0 39 -21 61
-36 37z"/>
<path d="M22660 16265 c7 -9 15 -13 17 -11 7 7 -7 26 -19 26 -6 0 -6 -6 2 -15z"/>
<path d="M22640 16180 c0 -23 40 -69 55 -63 11 3 13 1 9 -10 -3 -8 -1 -18 5
-22 7 -4 11 3 11 17 0 13 9 31 20 41 19 16 27 37 13 37 -3 0 -14 -7 -24 -16
-17 -15 -21 -15 -54 6 -21 13 -35 17 -35 10z"/>
<path d="M22591 16104 c0 -11 3 -14 6 -6 3 7 2 16 -1 19 -3 4 -6 -2 -5 -13z"/>
<path d="M22600 16071 c0 -7 5 -21 11 -32 15 -29 2 -56 -31 -68 -26 -8 -30
-15 -30 -45 0 -44 17 -56 26 -19 9 34 32 60 59 65 33 6 31 45 -4 80 -17 18
-31 26 -31 19z"/>
<path d="M20420 16056 c0 -8 5 -18 10 -21 6 -3 10 3 10 14 0 12 -4 21 -10 21
-5 0 -10 -6 -10 -14z"/>
<path d="M22521 15881 c-1 -37 1 -42 14 -31 10 8 12 18 6 29 -5 9 -11 23 -14
31 -3 8 -6 -5 -6 -29z"/>
<path d="M22233 15824 c-8 -21 13 -42 28 -27 13 13 5 43 -11 43 -6 0 -13 -7
-17 -16z"/>
<path d="M20546 15801 c-4 -7 -5 -15 -2 -18 9 -9 19 4 14 18 -4 11 -6 11 -12
0z"/>
<path d="M22195 15731 c-8 -26 1 -39 16 -24 8 8 8 17 1 29 -9 16 -10 15 -17
-5z"/>
<path d="M20835 15470 c4 -14 11 -32 16 -40 6 -12 8 -10 9 8 0 13 -7 31 -16
40 -15 15 -16 14 -9 -8z"/>
<path d="M21787 15403 c-11 -10 -8 -53 3 -53 6 0 10 14 10 30 0 31 -2 35 -13
23z"/>
<path d="M23430 14934 c0 -4 21 -31 48 -61 26 -30 70 -86 97 -123 112 -152
157 -209 170 -214 8 -3 21 -22 30 -43 9 -20 33 -60 54 -88 103 -137 234 -396
306 -605 25 -74 72 -207 104 -295 32 -88 68 -191 81 -230 12 -38 26 -74 31
-79 5 -6 9 -19 9 -30 0 -12 14 -59 31 -106 16 -47 34 -102 40 -123 5 -21 13
-45 18 -55 22 -44 71 -182 81 -227 13 -61 7 -351 -9 -489 -7 -54 -10 -104 -7
-112 3 -8 1 -73 -4 -146 -5 -73 -12 -203 -15 -288 -3 -85 -8 -162 -10 -170 -2
-8 -9 -82 -15 -165 -7 -99 -16 -158 -26 -172 -8 -13 -12 -23 -9 -23 3 0 1 -9
-5 -20 -16 -30 -32 -25 -86 31 -27 28 -61 63 -77 77 -15 14 -46 50 -70 81 -53
69 -132 151 -146 151 -6 0 -21 11 -33 25 -14 17 -28 23 -40 19 -11 -3 -24 -1
-31 4 -15 13 -153 7 -190 -7 -16 -6 -39 -11 -52 -11 -18 0 -28 -10 -41 -37
-10 -21 -24 -42 -31 -46 -7 -4 -13 -16 -13 -25 0 -9 -11 -39 -24 -67 -14 -27
-22 -53 -20 -57 2 -3 5 -68 6 -142 2 -117 0 -137 -15 -148 -9 -7 -17 -29 -19
-50 -2 -37 -18 -55 -18 -22 0 14 -3 14 -15 4 -18 -15 -20 -40 -3 -40 9 0 9 -3
0 -12 -21 -21 -14 -41 12 -36 36 7 49 -26 44 -106 -4 -71 1 -80 22 -42 9 18
11 47 6 105 -6 70 -5 81 8 81 19 0 21 11 4 28 -9 9 -8 15 7 25 12 10 14 16 7
21 -21 13 -13 36 11 36 33 0 57 -30 60 -76 1 -21 6 -44 10 -51 4 -6 1 -14 -5
-16 -10 -4 -10 -7 0 -15 11 -7 11 -18 3 -48 -6 -22 -11 -56 -11 -76 0 -20 -4
-39 -9 -42 -5 -3 -11 -23 -14 -43 -7 -53 -31 -140 -40 -149 -4 -4 -7 -17 -7
-29 0 -13 -7 -28 -15 -35 -17 -14 -20 -46 -6 -54 5 -4 22 0 38 8 15 8 48 23
73 35 25 11 60 30 78 42 18 12 32 16 32 10 0 -7 9 -21 20 -33 11 -12 20 -32
20 -45 0 -13 6 -32 13 -44 11 -18 8 -24 -21 -50 -23 -20 -39 -28 -53 -24 -14
5 -19 2 -19 -14 0 -11 -11 -28 -25 -37 -17 -11 -25 -25 -25 -45 0 -16 -6 -39
-12 -50 -10 -17 -10 -23 0 -26 6 -3 12 -12 12 -20 0 -10 -6 -13 -16 -9 -21 8
-45 -11 -37 -30 3 -8 -2 -25 -11 -39 -9 -13 -17 -37 -17 -52 -2 -26 -2 -26 -8
5 l-6 34 -22 -24 c-20 -21 -21 -27 -11 -56 13 -34 26 -39 48 -19 8 6 7 3 -3
-9 -9 -11 -17 -23 -17 -26 0 -7 55 -19 88 -20 17 0 22 -6 22 -25 0 -22 4 -25
25 -21 14 3 25 2 25 -2 0 -5 9 -6 20 -3 11 3 20 12 20 20 0 8 5 11 11 7 8 -4
8 -9 0 -17 -6 -6 -11 -18 -11 -27 0 -13 2 -13 9 -1 8 12 13 12 35 -3 28 -18
31 -43 8 -61 -7 -6 -16 -30 -19 -53 -5 -35 -3 -42 11 -42 13 0 16 -5 11 -21
-5 -15 -2 -22 14 -26 22 -6 27 -18 12 -28 -11 -6 -9 -44 3 -63 4 -7 2 -20 -5
-28 -6 -8 -9 -18 -5 -22 4 -4 13 0 19 9 7 9 18 14 25 12 7 -3 12 5 13 19 0 18
4 14 16 -17 8 -22 15 -50 14 -62 -1 -25 9 -29 26 -12 7 7 13 8 17 0 4 -6 -2
-18 -14 -28 -11 -10 -20 -24 -20 -31 0 -11 3 -12 14 -3 10 9 16 8 26 -4 7 -8
16 -12 21 -9 5 3 12 -3 16 -13 4 -10 10 -20 13 -23 6 -5 -3 -118 -14 -180 -2
-14 -5 -28 -5 -32 -1 -4 -10 -10 -21 -13 -25 -8 -26 -25 -2 -25 13 -1 11 -5
-10 -23 -22 -18 -28 -31 -28 -64 0 -27 -5 -43 -15 -47 -8 -3 -15 -14 -15 -25
0 -10 7 -21 15 -25 11 -4 15 1 15 19 0 37 16 38 17 0 1 -33 -20 -55 -32 -35
-8 13 -55 13 -55 1 0 -5 8 -12 18 -16 15 -6 15 -8 -5 -25 -13 -10 -23 -22 -23
-27 0 -4 -10 -13 -22 -18 -15 -7 -22 -18 -21 -31 1 -12 -7 -30 -17 -39 -11
-10 -20 -27 -20 -37 0 -11 -9 -31 -20 -45 -11 -14 -20 -31 -20 -38 0 -7 -16
-32 -35 -55 -19 -23 -35 -51 -35 -61 0 -12 -10 -23 -25 -29 -21 -8 -25 -16
-25 -54 0 -40 -11 -70 -66 -179 -20 -40 -18 -62 8 -79 18 -12 20 -18 11 -29
-7 -9 -8 -20 -3 -29 7 -12 12 -11 31 5 l22 20 -7 -27 c-7 -32 2 -78 16 -78 5
0 7 9 3 19 -7 23 10 37 22 19 4 -7 6 -37 4 -65 -1 -31 1 -53 7 -53 13 0 22 24
22 57 0 25 1 25 19 9 19 -17 47 -14 36 4 -3 5 -1 11 4 14 22 14 24 -166 3
-234 -13 -44 -42 -208 -42 -243 0 -14 -4 -28 -9 -31 -4 -3 -11 -35 -14 -70 -3
-36 -13 -76 -20 -88 -8 -13 -18 -50 -21 -83 -4 -33 -11 -64 -16 -69 -6 -6 -10
-19 -10 -30 0 -12 -11 -75 -26 -141 -14 -66 -28 -131 -31 -145 l-5 -25 -9 24
c-7 17 -13 21 -20 14 -12 -12 -1 -65 13 -57 11 7 0 -84 -12 -101 -12 -17 -41
-135 -36 -144 3 -4 -1 -17 -9 -27 -8 -10 -15 -26 -15 -35 0 -9 -9 -28 -20 -42
-11 -14 -20 -32 -20 -40 0 -9 -11 -14 -32 -15 -35 -1 -52 -20 -36 -39 7 -9 5
-17 -6 -29 -13 -13 -14 -19 -5 -31 10 -11 8 -15 -9 -20 -22 -5 -31 -33 -12
-33 6 0 10 -5 10 -11 0 -6 -8 -8 -19 -4 -23 7 -35 -19 -21 -45 7 -13 6 -21 -5
-30 -8 -7 -15 -28 -15 -46 0 -19 -4 -34 -10 -34 -5 0 -10 -9 -10 -20 0 -11 -4
-20 -10 -20 -5 0 -10 -7 -10 -15 0 -8 -11 -22 -25 -31 -14 -9 -22 -21 -18 -28
13 -20 13 -76 0 -76 -7 0 -17 -8 -24 -19 -6 -10 -25 -21 -42 -24 -22 -5 -29
-11 -25 -22 3 -8 10 -15 15 -15 5 0 9 -11 9 -25 0 -16 -6 -25 -16 -25 -12 0
-15 -8 -12 -34 3 -26 0 -32 -11 -28 -10 4 -13 -2 -9 -26 3 -23 0 -32 -11 -35
-13 -4 -13 -5 2 -6 9 0 17 -4 17 -8 -1 -15 -38 -53 -51 -53 -10 0 -10 -3 -1
-12 7 -7 12 -20 12 -29 0 -9 8 -20 18 -24 15 -6 14 -9 -8 -27 -30 -24 -51 -97
-36 -121 9 -14 3 -25 -31 -58 -36 -35 -41 -44 -33 -65 8 -20 5 -27 -19 -45
-34 -25 -42 -79 -11 -79 31 0 32 -18 3 -32 -22 -11 -28 -20 -26 -41 1 -20 -4
-31 -20 -38 -19 -8 -23 -19 -25 -61 -2 -59 -6 -66 -38 -78 -27 -11 -32 -41 -9
-60 8 -7 13 -16 10 -20 -3 -5 0 -10 6 -12 7 -2 12 -24 13 -48 1 -43 0 -45 -26
-42 -24 2 -28 -1 -28 -23 0 -14 -5 -25 -11 -25 -7 0 -10 12 -7 30 3 16 1 30
-3 30 -14 0 -31 -59 -23 -82 10 -31 6 -78 -8 -96 -9 -10 -9 -15 0 -21 15 -9
20 -45 7 -48 -5 -2 -10 7 -10 18 -1 23 -30 45 -40 29 -3 -5 -3 -16 2 -22 7
-11 12 -38 13 -73 2 -38 -8 -146 -13 -152 -4 -3 -7 -19 -7 -34 0 -15 -5 -29
-10 -31 -6 -2 -12 -21 -13 -43 -2 -32 -8 -43 -30 -53 -15 -7 -27 -20 -27 -29
0 -9 -5 -31 -12 -50 -11 -30 -10 -35 16 -62 17 -18 26 -36 23 -48 -4 -14 -5
-15 -6 -2 -1 20 -60 32 -78 17 -10 -8 -9 -15 2 -31 18 -26 20 -78 3 -95 -8 -8
-8 -15 0 -25 15 -18 -4 -38 -27 -29 -13 5 -14 3 -4 -10 7 -8 10 -18 6 -21 -3
-4 0 -14 7 -22 11 -13 10 -18 -6 -30 -19 -14 -19 -15 3 -54 22 -42 18 -56 -13
-44 -13 5 -15 3 -9 -7 5 -8 3 -17 -6 -24 -8 -6 -15 -24 -16 -41 -7 -90 -10
-112 -21 -132 -7 -12 -12 -32 -12 -45 0 -13 -6 -33 -14 -44 -16 -22 -15 -56 1
-61 11 -4 5 -63 -7 -63 -9 0 -10 -15 -11 -136 0 -88 -1 -92 -26 -103 -24 -11
-25 -15 -18 -64 17 -144 20 -179 12 -184 -4 -3 -6 -17 -2 -32 3 -16 -1 -43
-11 -66 -20 -49 -23 -72 -28 -304 -3 -113 -8 -187 -15 -194 -6 -6 -11 -35 -11
-64 0 -45 -4 -58 -26 -78 -24 -22 -25 -28 -15 -52 16 -38 17 -94 2 -121 -10
-19 -22 -162 -21 -254 0 -19 -5 -28 -15 -28 -19 0 -30 -26 -18 -43 15 -20 15
-104 -1 -190 -8 -45 -15 -111 -16 -147 0 -36 -2 -85 -4 -110 -2 -25 1 -61 7
-81 6 -24 6 -43 -1 -54 -6 -12 -6 -30 0 -52 12 -43 9 -46 -23 -29 l-26 13 -2
-56 c-1 -31 -8 -66 -16 -78 -12 -18 -12 -23 1 -34 10 -8 14 -24 11 -43 -3 -20
2 -36 14 -50 11 -11 19 -27 19 -35 -1 -14 -3 -13 -14 2 -18 23 -29 22 -21 -3
5 -16 2 -20 -14 -20 -17 0 -20 -6 -19 -42 0 -24 -5 -62 -12 -86 -12 -40 -12
-44 9 -63 20 -18 22 -28 16 -65 l-6 -44 6080 0 6080 0 -5 53 c-3 28 -12 72
-19 97 -15 47 -36 161 -60 315 -12 78 -32 172 -66 320 -5 22 -13 63 -18 92 -9
50 -23 106 -41 168 -5 17 -13 55 -19 85 -10 54 -20 100 -61 270 -11 47 -24
110 -29 140 -5 30 -21 102 -36 160 -22 88 -28 140 -36 323 -5 120 -11 222 -14
227 -2 4 -12 146 -20 316 -23 456 -41 569 -118 719 -66 130 -141 236 -259 367
-37 41 -75 92 -84 113 -8 21 -28 110 -44 199 -52 291 -71 390 -95 476 -22 79
-38 162 -66 335 -13 81 -44 219 -65 289 -7 26 -14 58 -14 69 0 12 -9 57 -19
102 -19 79 -43 193 -61 290 -5 28 -14 122 -20 210 -6 88 -20 223 -30 300 -10
77 -22 165 -25 195 -3 30 -10 84 -15 120 -5 36 -14 108 -20 160 -6 52 -20 138
-30 190 -11 52 -31 169 -46 260 -54 341 -91 540 -114 620 -10 36 -25 97 -34
135 -8 39 -24 93 -35 120 -10 28 -36 104 -57 170 -21 66 -84 234 -141 373 -57
139 -103 257 -103 261 0 5 -11 33 -24 63 -45 102 -96 266 -115 370 -31 165
-59 263 -116 408 -30 74 -70 182 -89 240 -19 58 -49 141 -66 185 -18 44 -42
107 -55 140 -40 104 -71 168 -112 231 -22 34 -49 93 -62 130 -12 38 -37 94
-56 124 -19 30 -54 88 -77 128 -24 41 -69 108 -101 150 -31 42 -83 117 -115
165 -99 154 -211 278 -325 361 -118 85 -147 113 -228 217 -121 155 -391 335
-759 503 -128 59 -430 210 -530 266 -97 54 -195 100 -280 132 -30 12 -71 30
-90 41 -19 11 -64 30 -100 42 -77 27 -108 41 -417 186 -233 110 -466 209 -490
209 -7 0 -85 24 -175 54 -216 72 -314 99 -488 136 -80 17 -168 37 -196 45 -28
8 -61 15 -73 15 -13 0 -46 6 -74 14 -29 7 -95 21 -147 30 -52 9 -167 30 -255
46 -198 36 -268 49 -370 65 -44 7 -125 22 -180 34 -102 21 -117 28 -385 169
-153 80 -272 122 -445 157 -261 52 -378 93 -630 217 -188 94 -197 100 -300
198 -44 42 -116 107 -160 145 -44 37 -141 125 -215 194 -167 155 -242 210
-380 281 -59 30 -129 75 -156 98 -71 63 -184 128 -184 106z m3900 -2064 c0 -5
-4 -10 -9 -10 -6 0 -13 5 -16 10 -3 6 1 10 9 10 9 0 16 -4 16 -10z m-3650
-1580 c0 -5 -7 -10 -16 -10 -8 0 -12 5 -9 10 3 6 10 10 16 10 5 0 9 -4 9 -10z
m-90 -460 c0 -5 -4 -10 -10 -10 -5 0 -10 5 -10 10 0 6 5 10 10 10 6 0 10 -4
10 -10z m204 -752 c-5 -8 -10 -5 -14 8 -10 25 0 41 12 20 5 -9 6 -21 2 -28z
m22 -339 c3 -6 0 -15 -7 -20 -14 -8 -32 9 -23 23 7 11 22 10 30 -3z m285 -532
c-11 -11 -25 28 -15 45 5 7 10 3 16 -12 5 -14 5 -27 -1 -33z m-49 -369 c-7 -7
-12 -8 -12 -2 0 14 12 26 19 19 2 -3 -1 -11 -7 -17z m-553 -2671 c-12 -11 -20
-16 -17 -11 2 5 11 24 19 43 12 29 14 31 17 11 2 -13 -5 -30 -19 -43z m-19
-37 c0 -5 -5 -10 -11 -10 -5 0 -7 5 -4 10 3 6 8 10 11 10 2 0 4 -4 4 -10z
m-382 -1082 c-3 -7 -11 -13 -18 -13 -7 0 -15 6 -17 13 -3 7 4 12 17 12 13 0
20 -5 18 -12z m-158 -363 c0 -8 -9 -15 -20 -15 -20 0 -26 11 -13 23 12 13 33
7 33 -8z m215 -35 c3 -5 1 -10 -4 -10 -6 0 -11 5 -11 10 0 6 2 10 4 10 3 0 8
-4 11 -10z m-228 -162 c-3 -8 -6 -5 -6 6 -1 11 2 17 5 13 3 -3 4 -12 1 -19z
m-227 -803 c0 -8 -4 -15 -10 -15 -5 0 -10 7 -10 15 0 8 5 15 10 15 6 0 10 -7
10 -15z"/>
<path d="M23477 14534 c-9 -9 15 -67 42 -101 14 -18 27 -30 30 -28 2 3 -1 10
-6 17 -6 7 -18 35 -28 61 -18 48 -28 61 -38 51z"/>
<path d="M23514 14328 c3 -18 9 -92 12 -165 6 -112 4 -149 -15 -245 -38 -197
-44 -222 -62 -268 -9 -25 -39 -101 -65 -170 -26 -69 -55 -144 -65 -167 -11
-24 -19 -47 -19 -53 0 -5 -11 -35 -25 -66 -14 -31 -25 -65 -25 -75 0 -11 -4
-19 -10 -19 -15 0 -42 -72 -37 -98 3 -16 0 -22 -12 -20 -9 2 -16 -4 -16 -14 0
-10 -6 -23 -13 -30 -6 -6 -12 -18 -12 -25 0 -7 -9 -27 -20 -45 -11 -18 -20
-45 -20 -60 0 -15 -4 -30 -10 -33 -5 -3 -10 -23 -10 -43 0 -25 -3 -33 -9 -23
-21 32 -47 -32 -31 -75 8 -20 6 -22 -18 -21 -25 2 -27 -2 -35 -48 -5 -27 -8
-69 -8 -93 1 -36 -2 -44 -25 -54 -19 -9 -24 -18 -21 -35 2 -13 -2 -28 -9 -34
-8 -6 -14 -24 -14 -39 0 -19 -7 -30 -25 -38 -16 -7 -23 -17 -19 -27 4 -9 1
-15 -8 -15 -24 0 -57 -37 -51 -59 3 -13 -2 -21 -16 -26 -12 -4 -20 -13 -19
-23 2 -9 -7 -18 -22 -23 -14 -4 -19 -7 -11 -8 11 -1 11 -5 -2 -19 -10 -10 -17
-24 -17 -30 0 -22 -35 -81 -52 -85 -18 -5 -15 -39 5 -64 5 -7 7 -20 3 -28 -5
-14 -8 -14 -30 0 -22 14 -25 14 -40 0 -18 -19 -21 -41 -6 -50 19 -11 11 -57
-10 -62 -16 -4 -19 -11 -14 -32 4 -14 10 -32 14 -39 4 -8 0 -33 -8 -57 -16
-51 -42 -61 -84 -32 -28 18 -28 18 -28 -2 0 -11 5 -23 11 -27 6 -3 8 -17 5
-29 -7 -28 11 -44 21 -18 16 42 43 37 43 -8 0 -26 2 -28 19 -20 10 6 21 8 24
5 6 -6 -20 -61 -34 -69 -17 -11 -9 -23 21 -34 31 -10 38 -25 19 -37 -6 -3 -15
0 -20 7 -6 10 -9 7 -9 -12 0 -19 -11 -34 -40 -54 -41 -29 -48 -43 -29 -62 14
-14 3 -33 -18 -33 -14 0 -14 -3 2 -20 10 -11 15 -23 12 -27 -11 -10 -57 15
-57 32 0 27 -20 16 -37 -20 -9 -19 -23 -36 -32 -37 -9 -2 -16 -12 -16 -23 0
-13 -6 -19 -17 -17 -21 3 -34 -16 -20 -30 8 -8 16 -7 27 2 10 8 15 9 15 1 0
-6 -4 -11 -10 -11 -5 0 -10 -6 -10 -14 0 -8 -8 -17 -17 -20 -11 -4 -18 -16
-18 -30 0 -21 6 -26 37 -31 45 -8 55 -20 31 -35 -13 -8 -15 -13 -5 -17 10 -4
10 -8 0 -21 -10 -12 -10 -16 0 -19 16 -6 16 -85 0 -101 -20 -20 -48 -15 -48 9
0 20 -4 21 -46 14 -32 -4 -44 -3 -39 4 3 6 12 11 20 11 14 0 55 46 55 61 0 5
-4 9 -10 9 -5 0 -10 -7 -10 -15 0 -27 -20 -16 -21 13 -1 15 -3 34 -4 42 -1 8
-3 27 -4 43 -1 29 -31 40 -31 11 0 -11 -6 -14 -21 -9 -18 6 -20 4 -14 -17 4
-12 11 -27 16 -33 15 -16 10 -28 -11 -22 -11 3 -23 1 -26 -5 -3 -5 -19 -6 -35
-3 -25 6 -29 3 -29 -14 0 -11 -6 -24 -13 -28 -8 -4 -17 -16 -20 -26 -4 -10
-11 -16 -16 -13 -5 3 -15 -2 -22 -10 -18 -22 -88 -67 -114 -74 -12 -4 -21 -16
-23 -31 -2 -16 -15 -31 -40 -44 -25 -14 -38 -28 -40 -45 -2 -14 -11 -31 -19
-37 -28 -22 -5 -26 29 -6 18 10 39 31 46 46 7 15 20 27 28 27 7 0 14 9 14 20
0 15 7 20 25 20 14 0 25 -5 25 -11 0 -6 6 -9 13 -6 6 2 11 9 10 15 -4 16 70
24 79 8 11 -19 48 -8 48 14 0 13 -6 17 -20 13 -14 -4 -20 0 -20 10 0 16 28 30
51 25 8 -2 15 7 17 20 2 12 8 22 13 22 12 0 11 -7 -1 -31 -8 -14 -7 -19 2 -19
8 0 7 -4 -4 -10 -15 -9 -15 -13 0 -53 21 -56 30 -67 57 -67 28 0 47 -22 39
-44 -8 -21 -22 -20 -63 5 -36 22 -61 19 -61 -6 0 -10 16 -23 40 -32 46 -18 50
-40 10 -60 -25 -13 -27 -16 -29 -65 0 -16 -7 -28 -14 -28 -7 0 -18 -24 -26
-56 -7 -31 -14 -62 -17 -68 -2 -6 0 -17 5 -25 7 -12 13 -12 24 -3 7 7 16 9 19
6 3 -3 18 11 33 30 28 37 55 47 55 21 0 -9 9 -15 21 -15 12 0 27 -7 34 -16 9
-13 27 -17 74 -16 40 1 64 -3 67 -11 2 -7 -4 -41 -14 -77 -14 -53 -21 -65 -37
-63 -10 1 -34 -12 -53 -29 -25 -22 -41 -28 -58 -24 -18 5 -22 3 -18 -8 3 -8 1
-17 -5 -21 -6 -3 -11 -16 -12 -28 0 -21 -1 -21 -10 3 -6 14 -8 37 -5 53 6 31
0 34 -26 10 -17 -15 -18 -15 -18 11 0 34 -39 111 -50 100 -11 -13 -18 -174 -7
-181 5 -3 14 0 20 6 15 15 47 14 47 -2 0 -8 -3 -16 -6 -20 -10 -10 -9 -111 2
-129 8 -15 15 -16 44 -7 43 14 110 12 128 -3 11 -10 9 -15 -10 -30 -13 -9 -31
-18 -40 -18 -10 0 -18 -7 -18 -15 0 -17 -26 -20 -35 -4 -4 6 1 17 11 24 23 18
4 19 -31 3 -22 -10 -28 -9 -41 10 -16 23 -44 30 -44 11 0 -18 20 -49 33 -49
16 -1 57 -35 57 -48 0 -17 -43 -9 -67 12 -13 11 -23 28 -23 38 0 49 -58 -10
-90 -92 -7 -19 -18 -41 -23 -48 -6 -7 -11 -51 -12 -98 -2 -71 -5 -88 -24 -107
-11 -13 -21 -31 -21 -41 0 -27 -19 -58 -56 -93 -35 -33 -45 -57 -20 -47 8 3
16 -3 19 -15 4 -17 2 -19 -10 -12 -10 5 -26 3 -44 -8 -34 -19 -49 -8 -24 19
29 32 11 34 -21 2 -66 -64 -77 -89 -48 -113 9 -8 13 -21 10 -35 -8 -30 3 -56
20 -50 9 3 14 -2 14 -13 0 -24 -19 -31 -87 -31 -48 0 -54 2 -48 18 8 21 8 18
6 64 0 21 -4 37 -8 35 -9 -2 -13 6 -13 24 0 6 6 9 14 6 10 -4 12 0 9 14 -3 10
-13 19 -23 19 -10 0 -21 10 -25 23 -6 16 -10 6 -16 -43 -8 -70 -3 -148 12
-166 16 -19 -56 -42 -105 -33 -25 4 -46 3 -53 -3 -7 -6 -20 -7 -29 -4 -9 4
-23 1 -31 -5 -8 -7 -39 -11 -71 -11 -31 1 -64 -2 -72 -8 -12 -8 -11 -10 6 -10
17 0 66 -38 53 -41 -2 0 -34 -2 -72 -3 -78 -3 -96 4 -73 27 19 19 13 24 -34
28 -30 3 -35 1 -32 -16 4 -19 15 -30 36 -38 16 -5 -4 -27 -25 -27 -20 0 -20
-18 2 -77 10 -26 29 -31 29 -8 0 8 5 15 10 15 6 0 19 9 31 21 19 19 22 19 38
5 13 -12 28 -14 68 -7 28 4 58 4 66 -1 9 -5 18 -4 22 2 3 5 19 10 36 10 18 0
28 5 26 13 -3 15 82 20 99 6 14 -11 36 -8 46 6 4 5 10 6 14 2 4 -4 2 -13 -4
-19 -18 -18 -15 -68 4 -68 14 0 15 -7 10 -44 -6 -35 -4 -45 9 -50 19 -7 35 0
35 15 0 6 15 34 34 62 38 59 126 211 126 219 0 3 -11 3 -25 0 -14 -2 -25 0
-25 6 0 9 22 19 73 36 22 7 22 36 0 36 -14 0 -14 2 2 20 10 11 24 20 30 20 7
0 16 8 19 17 14 34 63 107 117 171 30 37 85 110 121 162 37 52 84 118 106 146
28 36 41 65 46 100 10 63 27 89 77 114 22 12 42 27 46 35 3 8 11 15 18 15 6 0
20 9 31 21 10 12 36 28 57 36 20 8 37 19 37 23 0 4 27 40 61 80 52 62 59 76
54 101 -6 27 -5 29 24 29 21 0 34 7 42 23 7 12 29 41 50 64 55 60 119 204 149
333 7 30 21 72 32 94 19 37 64 161 74 201 2 11 0 27 -6 35 -9 13 -12 13 -24
-2 -16 -22 -32 -23 -40 -2 -14 36 32 72 74 59 15 -5 20 -2 20 12 0 26 32 106
83 204 24 48 52 120 62 160 10 41 36 127 57 192 21 65 43 137 47 160 5 23 25
96 45 162 20 66 46 154 57 195 11 41 33 118 49 170 38 121 105 398 125 515 8
50 19 108 25 130 6 22 16 101 24 175 8 74 23 180 34 235 24 115 49 293 57 411
5 72 3 83 -14 99 -12 10 -23 36 -26 64 -4 25 -12 62 -19 81 -7 19 -21 69 -31
110 -20 87 -35 137 -63 201 -11 25 -25 72 -32 104 -14 68 -29 105 -43 105 -5
0 -7 -14 -3 -32z m-814 -2548 c0 -5 -4 -10 -10 -10 -5 0 -10 5 -10 10 0 6 5
10 10 10 6 0 10 -4 10 -10z m-91 -227 c-8 -9 -16 -10 -22 -4 -13 13 0 31 19
24 11 -4 12 -8 3 -20z m-153 -460 c-8 -8 -36 5 -36 17 0 7 6 7 21 0 11 -7 18
-14 15 -17z m22 -192 c-6 -2 -17 4 -25 15 -10 14 -10 19 -1 25 8 5 17 0 25
-14 8 -16 8 -23 1 -26z m-222 -56 c19 -19 8 -38 -17 -30 -14 5 -19 2 -19 -11
0 -10 -3 -14 -6 -11 -7 6 14 67 23 67 2 0 11 -7 19 -15z m-214 -110 c0 -5 -5
-11 -11 -13 -6 -2 -11 4 -11 13 0 9 5 15 11 13 6 -2 11 -8 11 -13z m185 -37
c-3 -8 -6 -5 -6 6 -1 11 2 17 5 13 3 -3 4 -12 1 -19z m-9 -68 c0 -10 -1 -11
-5 -2 -2 6 -11 12 -19 12 -17 0 -17 5 -1 30 12 20 12 20 19 -2 3 -13 6 -30 6
-38z m112 12 c0 -15 -22 -30 -36 -25 -24 9 -16 33 11 33 14 0 25 -4 25 -8z
m49 -679 c0 -25 -1 -26 -9 -8 -12 27 -12 35 0 35 6 0 10 -12 9 -27z m81 17 c0
-5 -4 -10 -10 -10 -5 0 -10 5 -10 10 0 6 5 10 10 10 6 0 10 -4 10 -10z m-133
-266 c-3 -3 -12 -4 -19 -1 -8 3 -5 6 6 6 11 1 17 -2 13 -5z m-167 -154 c0 -12
-9 -30 -20 -42 -16 -18 -20 -19 -20 -6 0 26 18 68 30 68 5 0 10 -9 10 -20z m0
-120 c0 -5 -6 -10 -14 -10 -8 0 -18 5 -21 10 -3 6 3 10 14 10 12 0 21 -4 21
-10z m-322 -316 c9 2 32 7 50 11 37 8 44 -8 10 -26 -13 -7 -29 -20 -35 -30
-14 -19 -53 -15 -53 7 0 7 -8 17 -17 23 -17 9 -17 11 2 25 18 13 20 13 23 0 2
-8 11 -13 20 -10z m-18 -99 c0 -8 -4 -15 -10 -15 -5 0 -10 7 -10 15 0 8 5 15
10 15 6 0 10 -7 10 -15z m-113 -137 c-2 -7 -11 -12 -20 -10 -9 2 -25 -2 -35
-7 -10 -6 -29 -7 -42 -4 l-22 6 23 13 c32 18 102 19 96 2z m-209 -25 c-2 -13
-14 -19 -41 -21 -39 -3 -49 10 -19 27 29 17 64 14 60 -6z"/>
<path d="M20850 13950 c-8 -5 -11 -12 -7 -16 4 -4 13 -2 19 4 15 15 7 24 -12
12z"/>
<path d="M20900 13940 c0 -5 5 -10 10 -10 6 0 10 5 10 10 0 6 -4 10 -10 10 -5
0 -10 -4 -10 -10z"/>
<path d="M20730 13760 c0 -5 4 -10 9 -10 6 0 13 5 16 10 3 6 -1 10 -9 10 -9 0
-16 -4 -16 -10z"/>
<path d="M20800 13630 c0 -5 5 -10 10 -10 6 0 10 5 10 10 0 6 -4 10 -10 10 -5
0 -10 -4 -10 -10z"/>
<path d="M20890 13555 c-10 -12 -10 -15 4 -15 9 0 16 7 16 15 0 8 -2 15 -4 15
-2 0 -9 -7 -16 -15z"/>
<path d="M20680 13499 c0 -5 5 -7 10 -4 6 3 10 8 10 11 0 2 -4 4 -10 4 -5 0
-10 -5 -10 -11z"/>
<path d="M20577 13309 c-10 -6 -29 -8 -42 -5 -19 5 -28 0 -41 -19 -9 -13 -31
-34 -50 -46 -41 -25 -42 -33 -7 -65 42 -39 91 -49 175 -35 40 7 81 14 90 15
24 3 58 36 58 56 0 24 -25 56 -34 42 -10 -16 -56 -15 -60 1 -3 6 -7 25 -11 40
-5 23 -9 26 -20 17 -9 -7 -15 -8 -20 0 -8 12 -15 12 -38 -1z m30 -25 c2 -5 -6
-10 -17 -10 -20 0 -25 7 -13 20 9 8 26 3 30 -10z"/>
<path d="M20229 13173 c-13 -16 -12 -17 4 -4 9 7 17 15 17 17 0 8 -8 3 -21
-13z"/>
<path d="M20000 12526 c0 -9 5 -16 10 -16 6 0 10 4 10 9 0 6 -4 13 -10 16 -5
3 -10 -1 -10 -9z"/>
<path d="M18891 12434 c0 -11 3 -14 6 -6 3 7 2 16 -1 19 -3 4 -6 -2 -5 -13z"/>
<path d="M19956 12432 c-4 -13 -5 -26 -2 -29 10 -11 18 4 14 29 l-4 23 -8 -23z"/>
<path d="M20015 12409 c-10 -15 3 -25 16 -12 7 7 7 13 1 17 -6 3 -14 1 -17 -5z"/>
<path d="M19137 12374 c-8 -8 1 -24 14 -24 5 0 9 7 9 15 0 15 -12 20 -23 9z"/>
<path d="M19170 12370 c0 -5 7 -10 15 -10 8 0 15 5 15 10 0 6 -7 10 -15 10 -8
0 -15 -4 -15 -10z"/>
<path d="M20077 12373 c-13 -12 -7 -33 8 -33 8 0 15 9 15 20 0 20 -11 26 -23
13z"/>
<path d="M19105 12360 c-3 -5 -1 -10 4 -10 6 0 11 5 11 10 0 6 -2 10 -4 10 -3
0 -8 -4 -11 -10z"/>
<path d="M19970 12363 c-45 -7 -54 -13 -43 -24 7 -7 17 -8 25 -3 7 5 20 9 28
9 8 1 25 2 38 3 13 1 20 7 17 12 -6 10 -19 11 -65 3z"/>
<path d="M19490 12351 c0 -6 5 -13 10 -16 18 -11 11 -25 -12 -25 l-22 0 22
-20 c12 -11 23 -20 25 -20 3 0 5 20 5 45 1 33 -3 45 -13 45 -8 0 -15 -4 -15
-9z"/>
<path d="M19540 12351 c0 -6 5 -13 10 -16 6 -3 10 1 10 9 0 9 -4 16 -10 16 -5
0 -10 -4 -10 -9z"/>
<path d="M19370 12319 c0 -5 5 -7 10 -4 6 3 10 8 10 11 0 2 -4 4 -10 4 -5 0
-10 -5 -10 -11z"/>
<path d="M18952 12295 c0 -16 2 -22 5 -12 2 9 2 23 0 30 -3 6 -5 -1 -5 -18z"/>
<path d="M19005 12300 c3 -5 8 -10 11 -10 2 0 4 5 4 10 0 6 -5 10 -11 10 -5 0
-7 -4 -4 -10z"/>
<path d="M19915 12290 c3 -5 12 -10 19 -10 8 0 19 -7 26 -15 13 -16 30 -20 30
-7 0 8 -57 42 -71 42 -6 0 -7 -4 -4 -10z"/>
<path d="M20021 12255 l-25 -14 32 1 c20 1 32 6 32 15 0 16 -7 15 -39 -2z"/>
<path d="M20085 12230 c-3 -5 1 -10 9 -10 9 0 16 5 16 10 0 6 -4 10 -9 10 -6
0 -13 -4 -16 -10z"/>
<path d="M20025 12211 c-3 -6 3 -15 14 -21 12 -6 22 -6 26 -1 3 6 -3 15 -14
21 -12 6 -22 6 -26 1z"/>
<path d="M19570 12199 c0 -5 5 -7 10 -4 6 3 10 8 10 11 0 2 -4 4 -10 4 -5 0
-10 -5 -10 -11z"/>
<path d="M18850 12174 c0 -5 7 -18 15 -28 12 -16 15 -17 15 -4 0 8 -7 21 -15
28 -8 7 -15 9 -15 4z"/>
<path d="M18726 12163 c-12 -12 -5 -23 14 -23 11 0 20 4 20 9 0 11 -26 22 -34
14z"/>
<path d="M18805 12150 c3 -5 10 -10 16 -10 5 0 9 5 9 10 0 6 -7 10 -16 10 -8
0 -12 -4 -9 -10z"/>
<path d="M20100 12131 c-30 -8 -15 -20 20 -16 14 2 29 4 33 4 13 2 -3 21 -16
20 -7 -1 -23 -4 -37 -8z"/>
<path d="M18815 12110 c5 -8 1 -18 -10 -27 -18 -12 -17 -13 8 -13 22 0 26 4
24 22 -2 12 -10 24 -17 26 -8 3 -10 0 -5 -8z"/>
<path d="M20033 12088 c-1 -11 5 -18 15 -18 13 0 13 -3 4 -12 -9 -9 -15 -10
-20 -2 -21 33 -91 45 -112 19 -19 -23 3 -42 57 -50 60 -9 73 -14 73 -31 0 -8
5 -14 11 -14 5 0 8 4 4 9 -3 6 5 19 17 31 21 19 22 22 6 31 -9 5 -15 15 -13
22 3 6 -5 17 -18 23 -19 9 -23 7 -24 -8z"/>
<path d="M20115 12070 c3 -5 8 -10 11 -10 2 0 4 5 4 10 0 6 -5 10 -11 10 -5 0
-7 -4 -4 -10z"/>
<path d="M18810 12030 c-13 -9 -13 -10 0 -10 8 0 22 5 30 10 13 9 13 10 0 10
-8 0 -22 -5 -30 -10z"/>
<path d="M18900 12030 c0 -5 5 -10 11 -10 5 0 7 5 4 10 -3 6 -8 10 -11 10 -2
0 -4 -4 -4 -10z"/>
<path d="M20287 12024 c-9 -10 2 -24 19 -24 8 0 14 7 14 15 0 15 -21 21 -33 9z"/>
<path d="M18860 11986 c0 -9 5 -16 10 -16 6 0 10 4 10 9 0 6 -4 13 -10 16 -5
3 -10 -1 -10 -9z"/>
<path d="M20180 11985 c0 -15 -22 -20 -74 -16 -20 2 -27 -1 -24 -11 7 -19 132
-18 150 1 11 12 10 13 -5 7 -14 -4 -20 0 -24 14 -6 23 -23 27 -23 5z"/>
<path d="M18405 11890 c-18 -8 -17 -9 8 -9 15 -1 27 4 27 9 0 12 -8 12 -35 0z"/>
<path d="M18437 11850 c-3 -11 -13 -20 -24 -20 -19 0 -49 -22 -72 -52 -11 -14
-11 -21 -1 -33 9 -11 9 -27 1 -67 -6 -29 -13 -77 -15 -107 -2 -45 0 -54 15
-58 10 -3 24 -20 31 -39 18 -52 25 -32 20 59 -3 68 -1 90 13 110 9 14 22 24
28 21 7 -2 17 7 23 20 10 21 9 25 -8 30 -11 2 -17 9 -14 15 4 6 2 19 -4 30 -8
16 -6 21 11 26 14 5 19 13 16 25 -3 12 2 20 16 24 17 4 18 7 7 20 -17 22 -37
20 -43 -4z m-7 -160 c0 -5 -2 -10 -4 -10 -3 0 -8 5 -11 10 -3 6 -1 10 4 10 6
0 11 -4 11 -10z"/>
<path d="M18860 11809 c0 -5 -4 -7 -10 -4 -5 3 -10 2 -10 -3 0 -8 22 -22 35
-22 2 0 3 9 2 20 -1 20 -17 29 -17 9z"/>
<path d="M18873 11731 c8 -23 13 -28 15 -16 2 10 -3 25 -12 33 -14 15 -15 13
-3 -17z"/>
<path d="M18894 11669 c-3 -6 1 -18 10 -27 15 -15 16 -14 16 11 0 27 -13 36
-26 16z"/>
<path d="M18866 11639 c-8 -18 31 -129 45 -129 13 0 11 17 -8 53 -9 18 -19 46
-23 62 -5 22 -9 26 -14 14z"/>
<path d="M18435 11579 c-9 -14 -2 -20 14 -10 8 6 9 11 3 15 -6 3 -14 1 -17 -5z"/>
<path d="M18430 11520 c0 -5 5 -10 10 -10 6 0 10 5 10 10 0 6 -4 10 -10 10 -5
0 -10 -4 -10 -10z"/>
<path d="M18204 11506 c-3 -9 -1 -23 6 -31 10 -12 9 -16 -4 -21 -18 -7 -23
-69 -6 -79 17 -11 12 -35 -6 -28 -12 4 -15 2 -12 -8 2 -8 15 -16 29 -17 13 -2
32 -12 42 -23 19 -20 52 -25 62 -9 3 5 -8 24 -25 41 -17 18 -30 43 -30 58 -1
14 -7 37 -14 50 -7 13 -11 32 -9 41 2 9 -3 22 -11 29 -13 11 -17 11 -22 -3z"/>
<path d="M18490 11510 c0 -5 5 -10 10 -10 6 0 10 5 10 10 0 6 -4 10 -10 10 -5
0 -10 -4 -10 -10z"/>
<path d="M22485 11460 c-3 -5 1 -10 10 -10 9 0 13 5 10 10 -3 6 -8 10 -10 10
-2 0 -7 -4 -10 -10z"/>
<path d="M18350 11441 c0 -6 9 -16 21 -24 18 -13 21 -26 22 -101 1 -49 6 -86
12 -86 6 0 26 -16 45 -35 19 -19 37 -35 41 -35 4 0 20 -11 36 -23 15 -13 55
-38 88 -56 33 -18 67 -39 76 -47 8 -8 23 -14 32 -14 9 0 17 -4 17 -10 0 -5 9
-10 19 -10 11 0 22 -4 26 -9 7 -13 67 -42 73 -37 8 9 -10 46 -23 46 -20 0
-106 90 -117 123 -6 15 -15 27 -22 26 -6 -1 -27 -1 -46 0 l-35 2 23 18 c29 25
28 29 -12 46 -29 12 -33 18 -28 42 3 15 10 31 16 35 6 4 8 9 5 12 -4 4 -38 0
-156 -21 -21 -3 -33 -1 -33 6 0 6 10 10 22 8 20 -2 22 2 20 33 -4 42 -17 59
-34 42 -20 -20 -34 -14 -33 15 0 18 -7 31 -22 38 -13 7 -20 15 -16 18 3 4 1 7
-5 7 -7 0 -12 -4 -12 -9z"/>
<path d="M18432 11428 c5 -15 28 -18 29 -3 0 6 -7 12 -17 13 -10 3 -15 -1 -12
-10z"/>
<path d="M18935 11409 c-4 -6 -5 -12 -2 -15 2 -3 7 2 10 11 7 17 1 20 -8 4z"/>
<path d="M22300 11370 c0 -5 5 -10 10 -10 6 0 10 5 10 10 0 6 -4 10 -10 10 -5
0 -10 -4 -10 -10z"/>
<path d="M18340 11350 c0 -5 5 -10 10 -10 6 0 10 5 10 10 0 6 -4 10 -10 10 -5
0 -10 -4 -10 -10z"/>
<path d="M22320 11335 c-8 -20 -14 -24 -27 -17 -22 12 -43 5 -43 -14 0 -10 12
-14 41 -14 70 0 102 31 59 58 -18 11 -21 9 -30 -13z"/>
<path d="M22400 11351 c0 -5 9 -11 19 -14 14 -3 18 -1 14 9 -6 15 -33 19 -33
5z"/>
<path d="M22410 11286 c0 -9 5 -16 10 -16 6 0 10 4 10 9 0 6 -4 13 -10 16 -5
3 -10 -1 -10 -9z"/>
<path d="M18353 11283 c9 -2 23 -2 30 0 6 3 -1 5 -18 5 -16 0 -22 -2 -12 -5z"/>
<path d="M22460 11270 c0 -5 5 -10 10 -10 6 0 10 5 10 10 0 6 -4 10 -10 10 -5
0 -10 -4 -10 -10z"/>
<path d="M22366 11253 c-6 -14 -5 -15 5 -6 7 7 10 15 7 18 -3 3 -9 -2 -12 -12z"/>
<path d="M22315 11250 c-3 -5 1 -10 9 -10 9 0 16 5 16 10 0 6 -4 10 -9 10 -6
0 -13 -4 -16 -10z"/>
<path d="M22385 11231 c-6 -11 9 -23 19 -14 9 9 7 23 -3 23 -6 0 -12 -4 -16
-9z"/>
<path d="M22253 11113 c-7 -3 -13 -14 -13 -26 0 -20 1 -20 16 -5 18 18 16 37
-3 31z"/>
<path d="M22190 11065 c7 -8 20 -15 29 -15 13 1 13 3 -3 15 -26 19 -42 19 -26
0z"/>
<path d="M22287 11063 c-11 -10 -8 -53 3 -53 6 0 10 14 10 30 0 31 -2 35 -13
23z"/>
<path d="M22114 11048 c-4 -5 -1 -14 7 -18 14 -9 29 -4 29 10 0 13 -29 20 -36
8z"/>
<path d="M22018 10938 c-3 -38 -6 -43 -30 -46 l-27 -3 17 -34 c18 -36 32 -45
32 -21 0 15 21 26 51 26 14 0 19 7 19 30 0 20 5 30 15 30 8 0 15 7 15 15 0 8
-9 15 -19 15 -11 0 -26 7 -35 15 -24 25 -35 17 -38 -27z m52 -18 c0 -5 -2 -10
-4 -10 -3 0 -8 5 -11 10 -3 6 -1 10 4 10 6 0 11 -4 11 -10z m0 -40 c0 -5 -2
-10 -4 -10 -3 0 -8 5 -11 10 -3 6 -1 10 4 10 6 0 11 -4 11 -10z"/>
<path d="M22157 10973 c-12 -12 -7 -22 8 -17 8 4 15 10 15 15 0 11 -14 12 -23
2z"/>
<path d="M22140 10935 c0 -5 5 -17 10 -25 5 -8 10 -10 10 -5 0 6 -5 17 -10 25
-5 8 -10 11 -10 5z"/>
<path d="M21866 10801 c-8 -12 3 -41 15 -41 5 0 9 11 9 25 0 25 -14 34 -24 16z"/>
<path d="M18246 10612 c-3 -6 -1 -14 5 -17 15 -10 25 3 12 16 -7 7 -13 7 -17
1z"/>
<path d="M21974 10585 c3 -9 6 -19 6 -21 0 -2 9 -4 21 -4 29 0 21 34 -10 38
-19 3 -22 0 -17 -13z"/>
<path d="M22096 10553 c-11 -11 -6 -23 9 -23 8 0 15 4 15 9 0 13 -16 22 -24
14z"/>
<path d="M21781 10511 c-10 -6 -10 -10 -1 -16 13 -8 24 -1 19 14 -3 6 -10 7
-18 2z"/>
<path d="M21735 10420 c3 -5 8 -10 11 -10 2 0 4 5 4 10 0 6 -5 10 -11 10 -5 0
-7 -4 -4 -10z"/>
<path d="M17935 10410 c-4 -6 -11 -8 -16 -5 -10 7 -29 -36 -29 -66 0 -23 22
-34 48 -24 15 6 15 8 1 18 -17 13 -35 52 -19 42 6 -3 10 -1 10 4 0 6 7 11 15
11 8 0 15 4 15 9 0 15 -18 23 -25 11z"/>
<path d="M17800 10320 c0 -5 12 -10 28 -10 21 0 24 2 12 10 -20 13 -40 13 -40
0z"/>
<path d="M22276 10175 c-9 -14 -13 -25 -9 -25 12 1 46 50 35 50 -6 0 -17 -11
-26 -25z"/>
<path d="M22390 10180 c0 -5 5 -10 10 -10 6 0 10 5 10 10 0 6 -4 10 -10 10 -5
0 -10 -4 -10 -10z"/>
<path d="M21961 9883 c0 -31 2 -34 9 -18 12 28 12 55 0 55 -5 0 -10 -17 -9
-37z"/>
<path d="M22109 9908 c-7 -29 -4 -68 5 -65 14 5 21 67 7 67 -6 0 -11 -1 -12
-2z"/>
<path d="M22300 9780 c0 -5 5 -10 10 -10 6 0 10 5 10 10 0 6 -4 10 -10 10 -5
0 -10 -4 -10 -10z"/>
<path d="M21883 9764 c-7 -20 6 -34 30 -34 19 0 18 -3 -10 -21 -18 -12 -33
-25 -33 -30 0 -5 -7 -9 -15 -9 -8 0 -15 -4 -15 -9 0 -5 7 -14 15 -21 12 -10
15 -9 15 8 0 20 18 32 47 32 8 0 21 7 29 15 18 18 44 9 44 -15 0 -23 10 -50
19 -50 3 0 7 33 7 73 l2 72 -65 1 c-44 0 -67 -4 -70 -12z"/>
<path d="M23421 9710 c-15 -43 -14 -44 10 -21 16 14 19 24 11 36 -8 15 -11 13
-21 -15z"/>
<path d="M21660 9515 c0 -8 5 -15 10 -15 6 0 10 7 10 15 0 8 -4 15 -10 15 -5
0 -10 -7 -10 -15z"/>
<path d="M21654 9448 c3 -18 5 -45 5 -60 1 -41 18 -34 23 10 5 37 -8 82 -24
82 -4 0 -6 -15 -4 -32z"/>
<path d="M21650 9324 c0 -8 5 -12 10 -9 6 3 10 10 10 16 0 5 -4 9 -10 9 -5 0
-10 -7 -10 -16z"/>
<path d="M21615 9300 c-3 -5 -2 -10 4 -10 5 0 13 5 16 10 3 6 2 10 -4 10 -5 0
-13 -4 -16 -10z"/>
<path d="M21570 9285 c6 -8 9 -19 5 -25 -6 -10 22 -27 30 -18 9 9 -20 58 -34
58 -11 0 -11 -3 -1 -15z"/>
<path d="M21678 9278 c12 -12 25 -19 28 -15 4 4 -1 14 -12 22 -29 22 -41 18
-16 -7z"/>
<path d="M21485 9270 c3 -5 10 -10 16 -10 5 0 9 5 9 10 0 6 -7 10 -16 10 -8 0
-12 -4 -9 -10z"/>
<path d="M23920 9183 c0 -5 5 -15 10 -23 8 -12 10 -11 10 8 0 12 -4 22 -10 22
-5 0 -10 -3 -10 -7z"/>
<path d="M21400 8992 c-25 -8 -48 -19 -51 -24 -3 -5 -18 -6 -32 -2 -23 5 -27
3 -27 -15 0 -24 17 -27 44 -6 11 8 37 15 57 15 47 0 69 8 69 25 0 22 -12 23
-60 7z"/>
<path d="M20810 8890 c0 -5 5 -10 10 -10 6 0 10 5 10 10 0 6 -4 10 -10 10 -5
0 -10 -4 -10 -10z"/>
<path d="M20995 8880 c-3 -5 1 -10 10 -10 9 0 13 5 10 10 -3 6 -8 10 -10 10
-2 0 -7 -4 -10 -10z"/>
<path d="M20895 8840 c-3 -5 -1 -10 4 -10 6 0 11 5 11 10 0 6 -2 10 -4 10 -3
0 -8 -4 -11 -10z"/>
<path d="M21150 8615 c0 -14 5 -25 10 -25 6 0 10 11 10 25 0 14 -4 25 -10 25
-5 0 -10 -11 -10 -25z"/>
<path d="M21227 8524 c-8 -8 3 -34 14 -34 5 0 9 9 9 20 0 19 -11 26 -23 14z"/>
<path d="M21470 8319 c0 -6 -8 -23 -19 -37 -10 -15 -21 -45 -25 -67 -4 -22
-14 -50 -22 -63 -24 -37 -4 -47 20 -10 29 42 47 94 40 113 -3 8 6 25 20 38 31
29 32 37 6 37 -11 0 -20 -5 -20 -11z"/>
<path d="M21315 8208 c5 -72 -2 -97 -20 -68 -3 6 -11 10 -16 10 -12 0 0 -53
15 -62 6 -4 15 -22 21 -39 15 -44 34 -48 41 -10 4 17 11 34 15 37 5 3 9 12 9
21 0 13 -3 13 -15 3 -24 -20 -42 2 -27 32 9 18 8 36 -8 88 l-20 65 5 -77z"/>
<path d="M21036 8025 c4 -8 8 -15 10 -15 2 0 4 7 4 15 0 8 -4 15 -10 15 -5 0
-7 -7 -4 -15z"/>
<path d="M23596 7865 c-16 -12 -17 -15 -4 -15 9 0 18 7 22 15 7 18 6 18 -18 0z"/>
<path d="M21105 7830 c3 -5 8 -10 11 -10 2 0 4 5 4 10 0 6 -5 10 -11 10 -5 0
-7 -4 -4 -10z"/>
<path d="M23610 7820 c0 -5 4 -10 9 -10 6 0 13 5 16 10 3 6 -1 10 -9 10 -9 0
-16 -4 -16 -10z"/>
<path d="M21154 7805 c-3 -8 -10 -12 -15 -9 -5 3 -9 -2 -9 -11 0 -10 6 -15 13
-12 10 4 13 -6 13 -37 -1 -22 4 -41 9 -41 6 0 9 12 7 27 -2 21 0 25 15 22 12
-4 24 4 36 25 24 41 22 46 -23 49 -29 2 -42 -2 -46 -13z"/>
<path d="M23701 7784 c0 -11 3 -14 6 -6 3 7 2 16 -1 19 -3 4 -6 -2 -5 -13z"/>
<path d="M23531 6444 c0 -11 3 -14 6 -6 3 7 2 16 -1 19 -3 4 -6 -2 -5 -13z"/>
<path d="M23467 6325 c-9 -23 11 -28 23 -5 8 16 8 20 -4 20 -7 0 -16 -7 -19
-15z"/>
<path d="M23094 5486 c-8 -22 3 -33 18 -18 9 9 9 15 0 24 -9 9 -13 7 -18 -6z"/>
<path d="M19972 2340 c0 -14 2 -19 5 -12 2 6 2 18 0 25 -3 6 -5 1 -5 -13z"/>
<path d="M22205 349 c-4 -6 -5 -12 -2 -15 2 -3 7 2 10 11 7 17 1 20 -8 4z"/>
</g>
</svg>
